solid forearm_visual
  facet normal -0.04074930 -0.97798329 -0.20466600
    outer loop
      vertex 0.00000000 0.06000000 0.00000000
      vertex 0.36000000 0.04500000 0.00000000
      vertex 0.36000000 0.04228617 0.01296787
    endloop
  endfacet
  facet normal -0.04074930 -0.97798329 -0.20466600
    outer loop
      vertex 0.00000000 0.06000000 0.00000000
      vertex 0.36000000 0.04228617 0.01296787
      vertex 0.00000000 0.05638156 0.01729050
    endloop
  endfacet
  facet normal -1.00000000 0.00000000 0.00000000
    outer loop
      vertex 0.00000000 0.00000000 0.00000000
      vertex 0.00000000 0.05638156 0.01729050
      vertex 0.00000000 0.06000000 0.00000000
    endloop
  endfacet
  facet normal 1.00000000 0.00000000 0.00000000
    outer loop
      vertex 0.36000000 0.00000000 0.00000000
      vertex 0.36000000 0.04500000 0.00000000
      vertex 0.36000000 0.04228617 0.01296787
    endloop
  endfacet
  facet normal -0.03708962 -0.74200380 -0.66936890
    outer loop
      vertex 0.00000000 0.05638156 0.01729050
      vertex 0.36000000 0.04228617 0.01296787
      vertex 0.36000000 0.03447200 0.02162997
    endloop
  endfacet
  facet normal -0.03708962 -0.74200380 -0.66936890
    outer loop
      vertex 0.00000000 0.05638156 0.01729050
      vertex 0.36000000 0.03447200 0.02162997
      vertex 0.00000000 0.04596267 0.02883997
    endloop
  endfacet
  facet normal -1.00000000 0.00000000 0.00000000
    outer loop
      vertex 0.00000000 0.00000000 0.00000000
      vertex 0.00000000 0.04596267 0.02883997
      vertex 0.00000000 0.05638156 0.01729050
    endloop
  endfacet
  facet normal 1.00000000 0.00000000 0.00000000
    outer loop
      vertex 0.36000000 0.00000000 0.00000000
      vertex 0.36000000 0.04228617 0.01296787
      vertex 0.36000000 0.03447200 0.02162997
    endloop
  endfacet
  facet normal -0.02780156 -0.26649443 -0.96343541
    outer loop
      vertex 0.00000000 0.04596267 0.02883997
      vertex 0.36000000 0.03447200 0.02162997
      vertex 0.36000000 0.02250000 0.02494153
    endloop
  endfacet
  facet normal -0.02780156 -0.26649443 -0.96343541
    outer loop
      vertex 0.00000000 0.04596267 0.02883997
      vertex 0.36000000 0.02250000 0.02494153
      vertex 0.00000000 0.03000000 0.03325538
    endloop
  endfacet
  facet normal -1.00000000 0.00000000 0.00000000
    outer loop
      vertex 0.00000000 0.00000000 0.00000000
      vertex 0.00000000 0.03000000 0.03325538
      vertex 0.00000000 0.04596267 0.02883997
    endloop
  endfacet
  facet normal 1.00000000 0.00000000 0.00000000
    outer loop
      vertex 0.36000000 0.00000000 0.00000000
      vertex 0.36000000 0.03447200 0.02162997
      vertex 0.36000000 0.02250000 0.02494153
    endloop
  endfacet
  facet normal -0.02351267 -0.02063838 -0.99951049
    outer loop
      vertex 0.00000000 0.03000000 0.03325538
      vertex 0.36000000 0.02250000 0.02494153
      vertex 0.36000000 0.00781417 0.02524477
    endloop
  endfacet
  facet normal -0.02351267 -0.02063838 -0.99951049
    outer loop
      vertex 0.00000000 0.03000000 0.03325538
      vertex 0.36000000 0.00781417 0.02524477
      vertex 0.00000000 0.01041889 0.03365970
    endloop
  endfacet
  facet normal -1.00000000 0.00000000 0.00000000
    outer loop
      vertex 0.00000000 0.00000000 0.00000000
      vertex 0.00000000 0.01041889 0.03365970
      vertex 0.00000000 0.03000000 0.03325538
    endloop
  endfacet
  facet normal 1.00000000 0.00000000 0.00000000
    outer loop
      vertex 0.36000000 0.00000000 0.00000000
      vertex 0.36000000 0.02250000 0.02494153
      vertex 0.36000000 0.00781417 0.02524477
    endloop
  endfacet
  facet normal -0.02336841 0.00000000 -0.99972692
    outer loop
      vertex 0.00000000 0.01041889 0.03365970
      vertex 0.36000000 0.00781417 0.02524477
      vertex 0.36000000 -0.00781417 0.02524477
    endloop
  endfacet
  facet normal -0.02336841 -0.00000000 -0.99972692
    outer loop
      vertex 0.00000000 0.01041889 0.03365970
      vertex 0.36000000 -0.00781417 0.02524477
      vertex 0.00000000 -0.01041889 0.03365970
    endloop
  endfacet
  facet normal -1.00000000 0.00000000 0.00000000
    outer loop
      vertex 0.00000000 0.00000000 0.00000000
      vertex 0.00000000 -0.01041889 0.03365970
      vertex 0.00000000 0.01041889 0.03365970
    endloop
  endfacet
  facet normal 1.00000000 0.00000000 -0.00000000
    outer loop
      vertex 0.36000000 0.00000000 0.00000000
      vertex 0.36000000 0.00781417 0.02524477
      vertex 0.36000000 -0.00781417 0.02524477
    endloop
  endfacet
  facet normal -0.02351267 0.02063838 -0.99951049
    outer loop
      vertex 0.00000000 -0.01041889 0.03365970
      vertex 0.36000000 -0.00781417 0.02524477
      vertex 0.36000000 -0.02250000 0.02494153
    endloop
  endfacet
  facet normal -0.02351267 0.02063838 -0.99951049
    outer loop
      vertex 0.00000000 -0.01041889 0.03365970
      vertex 0.36000000 -0.02250000 0.02494153
      vertex 0.00000000 -0.03000000 0.03325538
    endloop
  endfacet
  facet normal -1.00000000 0.00000000 0.00000000
    outer loop
      vertex 0.00000000 0.00000000 0.00000000
      vertex 0.00000000 -0.03000000 0.03325538
      vertex 0.00000000 -0.01041889 0.03365970
    endloop
  endfacet
  facet normal 1.00000000 0.00000000 0.00000000
    outer loop
      vertex 0.36000000 0.00000000 0.00000000
      vertex 0.36000000 -0.00781417 0.02524477
      vertex 0.36000000 -0.02250000 0.02494153
    endloop
  endfacet
  facet normal -0.02780156 0.26649443 -0.96343541
    outer loop
      vertex 0.00000000 -0.03000000 0.03325538
      vertex 0.36000000 -0.02250000 0.02494153
      vertex 0.36000000 -0.03447200 0.02162997
    endloop
  endfacet
  facet normal -0.02780156 0.26649443 -0.96343541
    outer loop
      vertex 0.00000000 -0.03000000 0.03325538
      vertex 0.36000000 -0.03447200 0.02162997
      vertex 0.00000000 -0.04596267 0.02883997
    endloop
  endfacet
  facet normal -1.00000000 0.00000000 0.00000000
    outer loop
      vertex 0.00000000 0.00000000 0.00000000
      vertex 0.00000000 -0.04596267 0.02883997
      vertex 0.00000000 -0.03000000 0.03325538
    endloop
  endfacet
  facet normal 1.00000000 0.00000000 0.00000000
    outer loop
      vertex 0.36000000 0.00000000 0.00000000
      vertex 0.36000000 -0.02250000 0.02494153
      vertex 0.36000000 -0.03447200 0.02162997
    endloop
  endfacet
  facet normal -0.03708962 0.74200380 -0.66936890
    outer loop
      vertex 0.00000000 -0.04596267 0.02883997
      vertex 0.36000000 -0.03447200 0.02162997
      vertex 0.36000000 -0.04228617 0.01296787
    endloop
  endfacet
  facet normal -0.03708962 0.74200380 -0.66936890
    outer loop
      vertex 0.00000000 -0.04596267 0.02883997
      vertex 0.36000000 -0.04228617 0.01296787
      vertex 0.00000000 -0.05638156 0.01729050
    endloop
  endfacet
  facet normal -1.00000000 0.00000000 0.00000000
    outer loop
      vertex 0.00000000 0.00000000 0.00000000
      vertex 0.00000000 -0.05638156 0.01729050
      vertex 0.00000000 -0.04596267 0.02883997
    endloop
  endfacet
  facet normal 1.00000000 0.00000000 0.00000000
    outer loop
      vertex 0.36000000 0.00000000 0.00000000
      vertex 0.36000000 -0.03447200 0.02162997
      vertex 0.36000000 -0.04228617 0.01296787
    endloop
  endfacet
  facet normal -0.04074930 0.97798329 -0.20466600
    outer loop
      vertex 0.00000000 -0.05638156 0.01729050
      vertex 0.36000000 -0.04228617 0.01296787
      vertex 0.36000000 -0.04500000 0.00000000
    endloop
  endfacet
  facet normal -0.04074930 0.97798329 -0.20466600
    outer loop
      vertex 0.00000000 -0.05638156 0.01729050
      vertex 0.36000000 -0.04500000 0.00000000
      vertex 0.00000000 -0.06000000 0.00000000
    endloop
  endfacet
  facet normal -1.00000000 0.00000000 0.00000000
    outer loop
      vertex 0.00000000 0.00000000 0.00000000
      vertex 0.00000000 -0.06000000 0.00000000
      vertex 0.00000000 -0.05638156 0.01729050
    endloop
  endfacet
  facet normal 1.00000000 0.00000000 0.00000000
    outer loop
      vertex 0.36000000 0.00000000 0.00000000
      vertex 0.36000000 -0.04228617 0.01296787
      vertex 0.36000000 -0.04500000 0.00000000
    endloop
  endfacet
  facet normal -0.04074930 0.97798329 0.20466600
    outer loop
      vertex 0.00000000 -0.06000000 0.00000000
      vertex 0.36000000 -0.04500000 0.00000000
      vertex 0.36000000 -0.04228617 -0.01296787
    endloop
  endfacet
  facet normal -0.04074930 0.97798329 0.20466600
    outer loop
      vertex 0.00000000 -0.06000000 0.00000000
      vertex 0.36000000 -0.04228617 -0.01296787
      vertex 0.00000000 -0.05638156 -0.01729050
    endloop
  endfacet
  facet normal -1.00000000 -0.00000000 0.00000000
    outer loop
      vertex 0.00000000 0.00000000 0.00000000
      vertex 0.00000000 -0.05638156 -0.01729050
      vertex 0.00000000 -0.06000000 0.00000000
    endloop
  endfacet
  facet normal 1.00000000 0.00000000 0.00000000
    outer loop
      vertex 0.36000000 0.00000000 0.00000000
      vertex 0.36000000 -0.04500000 0.00000000
      vertex 0.36000000 -0.04228617 -0.01296787
    endloop
  endfacet
  facet normal -0.03708962 0.74200380 0.66936890
    outer loop
      vertex 0.00000000 -0.05638156 -0.01729050
      vertex 0.36000000 -0.04228617 -0.01296787
      vertex 0.36000000 -0.03447200 -0.02162997
    endloop
  endfacet
  facet normal -0.03708962 0.74200380 0.66936890
    outer loop
      vertex 0.00000000 -0.05638156 -0.01729050
      vertex 0.36000000 -0.03447200 -0.02162997
      vertex 0.00000000 -0.04596267 -0.02883997
    endloop
  endfacet
  facet normal -1.00000000 0.00000000 0.00000000
    outer loop
      vertex 0.00000000 0.00000000 0.00000000
      vertex 0.00000000 -0.04596267 -0.02883997
      vertex 0.00000000 -0.05638156 -0.01729050
    endloop
  endfacet
  facet normal 1.00000000 0.00000000 0.00000000
    outer loop
      vertex 0.36000000 0.00000000 0.00000000
      vertex 0.36000000 -0.04228617 -0.01296787
      vertex 0.36000000 -0.03447200 -0.02162997
    endloop
  endfacet
  facet normal -0.02780156 0.26649443 0.96343541
    outer loop
      vertex 0.00000000 -0.04596267 -0.02883997
      vertex 0.36000000 -0.03447200 -0.02162997
      vertex 0.36000000 -0.02250000 -0.02494153
    endloop
  endfacet
  facet normal -0.02780156 0.26649443 0.96343541
    outer loop
      vertex 0.00000000 -0.04596267 -0.02883997
      vertex 0.36000000 -0.02250000 -0.02494153
      vertex 0.00000000 -0.03000000 -0.03325538
    endloop
  endfacet
  facet normal -1.00000000 0.00000000 0.00000000
    outer loop
      vertex 0.00000000 0.00000000 0.00000000
      vertex 0.00000000 -0.03000000 -0.03325538
      vertex 0.00000000 -0.04596267 -0.02883997
    endloop
  endfacet
  facet normal 1.00000000 0.00000000 0.00000000
    outer loop
      vertex 0.36000000 0.00000000 0.00000000
      vertex 0.36000000 -0.03447200 -0.02162997
      vertex 0.36000000 -0.02250000 -0.02494153
    endloop
  endfacet
  facet normal -0.02351267 0.02063838 0.99951049
    outer loop
      vertex 0.00000000 -0.03000000 -0.03325538
      vertex 0.36000000 -0.02250000 -0.02494153
      vertex 0.36000000 -0.00781417 -0.02524477
    endloop
  endfacet
  facet normal -0.02351267 0.02063838 0.99951049
    outer loop
      vertex 0.00000000 -0.03000000 -0.03325538
      vertex 0.36000000 -0.00781417 -0.02524477
      vertex 0.00000000 -0.01041889 -0.03365970
    endloop
  endfacet
  facet normal -1.00000000 0.00000000 0.00000000
    outer loop
      vertex 0.00000000 0.00000000 0.00000000
      vertex 0.00000000 -0.01041889 -0.03365970
      vertex 0.00000000 -0.03000000 -0.03325538
    endloop
  endfacet
  facet normal 1.00000000 0.00000000 0.00000000
    outer loop
      vertex 0.36000000 0.00000000 0.00000000
      vertex 0.36000000 -0.02250000 -0.02494153
      vertex 0.36000000 -0.00781417 -0.02524477
    endloop
  endfacet
  facet normal -0.02336841 0.00000000 0.99972692
    outer loop
      vertex 0.00000000 -0.01041889 -0.03365970
      vertex 0.36000000 -0.00781417 -0.02524477
      vertex 0.36000000 0.00781417 -0.02524477
    endloop
  endfacet
  facet normal -0.02336841 0.00000000 0.99972692
    outer loop
      vertex 0.00000000 -0.01041889 -0.03365970
      vertex 0.36000000 0.00781417 -0.02524477
      vertex 0.00000000 0.01041889 -0.03365970
    endloop
  endfacet
  facet normal -1.00000000 0.00000000 -0.00000000
    outer loop
      vertex 0.00000000 0.00000000 0.00000000
      vertex 0.00000000 0.01041889 -0.03365970
      vertex 0.00000000 -0.01041889 -0.03365970
    endloop
  endfacet
  facet normal 1.00000000 0.00000000 0.00000000
    outer loop
      vertex 0.36000000 0.00000000 0.00000000
      vertex 0.36000000 -0.00781417 -0.02524477
      vertex 0.36000000 0.00781417 -0.02524477
    endloop
  endfacet
  facet normal -0.02351267 -0.02063838 0.99951049
    outer loop
      vertex 0.00000000 0.01041889 -0.03365970
      vertex 0.36000000 0.00781417 -0.02524477
      vertex 0.36000000 0.02250000 -0.02494153
    endloop
  endfacet
  facet normal -0.02351267 -0.02063838 0.99951049
    outer loop
      vertex 0.00000000 0.01041889 -0.03365970
      vertex 0.36000000 0.02250000 -0.02494153
      vertex 0.00000000 0.03000000 -0.03325538
    endloop
  endfacet
  facet normal -1.00000000 0.00000000 0.00000000
    outer loop
      vertex 0.00000000 0.00000000 0.00000000
      vertex 0.00000000 0.03000000 -0.03325538
      vertex 0.00000000 0.01041889 -0.03365970
    endloop
  endfacet
  facet normal 1.00000000 0.00000000 0.00000000
    outer loop
      vertex 0.36000000 0.00000000 0.00000000
      vertex 0.36000000 0.00781417 -0.02524477
      vertex 0.36000000 0.02250000 -0.02494153
    endloop
  endfacet
  facet normal -0.02780156 -0.26649443 0.96343541
    outer loop
      vertex 0.00000000 0.03000000 -0.03325538
      vertex 0.36000000 0.02250000 -0.02494153
      vertex 0.36000000 0.03447200 -0.02162997
    endloop
  endfacet
  facet normal -0.02780156 -0.26649443 0.96343541
    outer loop
      vertex 0.00000000 0.03000000 -0.03325538
      vertex 0.36000000 0.03447200 -0.02162997
      vertex 0.00000000 0.04596267 -0.02883997
    endloop
  endfacet
  facet normal -1.00000000 0.00000000 0.00000000
    outer loop
      vertex 0.00000000 0.00000000 0.00000000
      vertex 0.00000000 0.04596267 -0.02883997
      vertex 0.00000000 0.03000000 -0.03325538
    endloop
  endfacet
  facet normal 1.00000000 0.00000000 0.00000000
    outer loop
      vertex 0.36000000 0.00000000 0.00000000
      vertex 0.36000000 0.02250000 -0.02494153
      vertex 0.36000000 0.03447200 -0.02162997
    endloop
  endfacet
  facet normal -0.03708962 -0.74200380 0.66936890
    outer loop
      vertex 0.00000000 0.04596267 -0.02883997
      vertex 0.36000000 0.03447200 -0.02162997
      vertex 0.36000000 0.04228617 -0.01296787
    endloop
  endfacet
  facet normal -0.03708962 -0.74200380 0.66936890
    outer loop
      vertex 0.00000000 0.04596267 -0.02883997
      vertex 0.36000000 0.04228617 -0.01296787
      vertex 0.00000000 0.05638156 -0.01729050
    endloop
  endfacet
  facet normal -1.00000000 0.00000000 0.00000000
    outer loop
      vertex 0.00000000 0.00000000 0.00000000
      vertex 0.00000000 0.05638156 -0.01729050
      vertex 0.00000000 0.04596267 -0.02883997
    endloop
  endfacet
  facet normal 1.00000000 0.00000000 0.00000000
    outer loop
      vertex 0.36000000 0.00000000 0.00000000
      vertex 0.36000000 0.03447200 -0.02162997
      vertex 0.36000000 0.04228617 -0.01296787
    endloop
  endfacet
  facet normal -0.04074930 -0.97798329 0.20466600
    outer loop
      vertex 0.00000000 0.05638156 -0.01729050
      vertex 0.36000000 0.04228617 -0.01296787
      vertex 0.36000000 0.04500000 0.00000000
    endloop
  endfacet
  facet normal -0.04074930 -0.97798329 0.20466600
    outer loop
      vertex 0.00000000 0.05638156 -0.01729050
      vertex 0.36000000 0.04500000 0.00000000
      vertex 0.00000000 0.06000000 0.00000000
    endloop
  endfacet
  facet normal -1.00000000 0.00000000 0.00000000
    outer loop
      vertex 0.00000000 0.00000000 0.00000000
      vertex 0.00000000 0.06000000 0.00000000
      vertex 0.00000000 0.05638156 -0.01729050
    endloop
  endfacet
  facet normal 1.00000000 -0.00000000 0.00000000
    outer loop
      vertex 0.36000000 0.00000000 0.00000000
      vertex 0.36000000 0.04228617 -0.01296787
      vertex 0.36000000 0.04500000 0.00000000
    endloop
  endfacet
endsolid forearm_visual
