solid joint_cap_visual
  facet normal 0.00000000 -0.99518473 -0.09801714
    outer loop
      vertex -0.05500000 0.08500000 0.00000000
      vertex 0.05500000 0.08500000 0.00000000
      vertex 0.05500000 0.08336675 0.01658268
    endloop
  endfacet
  facet normal 0.00000000 -0.99518473 -0.09801714
    outer loop
      vertex -0.05500000 0.08500000 0.00000000
      vertex 0.05500000 0.08336675 0.01658268
      vertex -0.05500000 0.08336675 0.01658268
    endloop
  endfacet
  facet normal -1.00000000 0.00000000 0.00000000
    outer loop
      vertex -0.05500000 0.00000000 0.00000000
      vertex -0.05500000 0.08336675 0.01658268
      vertex -0.05500000 0.08500000 0.00000000
    endloop
  endfacet
  facet normal 1.00000000 0.00000000 0.00000000
    outer loop
      vertex 0.05500000 0.00000000 0.00000000
      vertex 0.05500000 0.08500000 0.00000000
      vertex 0.05500000 0.08336675 0.01658268
    endloop
  endfacet
  facet normal 0.00000000 -0.95694034 -0.29028468
    outer loop
      vertex -0.05500000 0.08336675 0.01658268
      vertex 0.05500000 0.08336675 0.01658268
      vertex 0.05500000 0.07852976 0.03252809
    endloop
  endfacet
  facet normal 0.00000000 -0.95694034 -0.29028468
    outer loop
      vertex -0.05500000 0.08336675 0.01658268
      vertex 0.05500000 0.07852976 0.03252809
      vertex -0.05500000 0.07852976 0.03252809
    endloop
  endfacet
  facet normal -1.00000000 0.00000000 0.00000000
    outer loop
      vertex -0.05500000 0.00000000 0.00000000
      vertex -0.05500000 0.07852976 0.03252809
      vertex -0.05500000 0.08336675 0.01658268
    endloop
  endfacet
  facet normal 1.00000000 0.00000000 0.00000000
    outer loop
      vertex 0.05500000 0.00000000 0.00000000
      vertex 0.05500000 0.08336675 0.01658268
      vertex 0.05500000 0.07852976 0.03252809
    endloop
  endfacet
  facet normal 0.00000000 -0.88192126 -0.47139674
    outer loop
      vertex -0.05500000 0.07852976 0.03252809
      vertex 0.05500000 0.07852976 0.03252809
      vertex 0.05500000 0.07067492 0.04722347
    endloop
  endfacet
  facet normal 0.00000000 -0.88192126 -0.47139674
    outer loop
      vertex -0.05500000 0.07852976 0.03252809
      vertex 0.05500000 0.07067492 0.04722347
      vertex -0.05500000 0.07067492 0.04722347
    endloop
  endfacet
  facet normal -1.00000000 0.00000000 0.00000000
    outer loop
      vertex -0.05500000 0.00000000 0.00000000
      vertex -0.05500000 0.07067492 0.04722347
      vertex -0.05500000 0.07852976 0.03252809
    endloop
  endfacet
  facet normal 1.00000000 0.00000000 0.00000000
    outer loop
      vertex 0.05500000 0.00000000 0.00000000
      vertex 0.05500000 0.07852976 0.03252809
      vertex 0.05500000 0.07067492 0.04722347
    endloop
  endfacet
  facet normal 0.00000000 -0.77301045 -0.63439328
    outer loop
      vertex -0.05500000 0.07067492 0.04722347
      vertex 0.05500000 0.07067492 0.04722347
      vertex 0.05500000 0.06010408 0.06010408
    endloop
  endfacet
  facet normal 0.00000000 -0.77301045 -0.63439328
    outer loop
      vertex -0.05500000 0.07067492 0.04722347
      vertex 0.05500000 0.06010408 0.06010408
      vertex -0.05500000 0.06010408 0.06010408
    endloop
  endfacet
  facet normal -1.00000000 0.00000000 0.00000000
    outer loop
      vertex -0.05500000 0.00000000 0.00000000
      vertex -0.05500000 0.06010408 0.06010408
      vertex -0.05500000 0.07067492 0.04722347
    endloop
  endfacet
  facet normal 1.00000000 0.00000000 0.00000000
    outer loop
      vertex 0.05500000 0.00000000 0.00000000
      vertex 0.05500000 0.07067492 0.04722347
      vertex 0.05500000 0.06010408 0.06010408
    endloop
  endfacet
  facet normal 0.00000000 -0.63439328 -0.77301045
    outer loop
      vertex -0.05500000 0.06010408 0.06010408
      vertex 0.05500000 0.06010408 0.06010408
      vertex 0.05500000 0.04722347 0.07067492
    endloop
  endfacet
  facet normal 0.00000000 -0.63439328 -0.77301045
    outer loop
      vertex -0.05500000 0.06010408 0.06010408
      vertex 0.05500000 0.04722347 0.07067492
      vertex -0.05500000 0.04722347 0.07067492
    endloop
  endfacet
  facet normal -1.00000000 0.00000000 0.00000000
    outer loop
      vertex -0.05500000 0.00000000 0.00000000
      vertex -0.05500000 0.04722347 0.07067492
      vertex -0.05500000 0.06010408 0.06010408
    endloop
  endfacet
  facet normal 1.00000000 0.00000000 0.00000000
    outer loop
      vertex 0.05500000 0.00000000 0.00000000
      vertex 0.05500000 0.06010408 0.06010408
      vertex 0.05500000 0.04722347 0.07067492
    endloop
  endfacet
  facet normal 0.00000000 -0.47139674 -0.88192126
    outer loop
      vertex -0.05500000 0.04722347 0.07067492
      vertex 0.05500000 0.04722347 0.07067492
      vertex 0.05500000 0.03252809 0.07852976
    endloop
  endfacet
  facet normal 0.00000000 -0.47139674 -0.88192126
    outer loop
      vertex -0.05500000 0.04722347 0.07067492
      vertex 0.05500000 0.03252809 0.07852976
      vertex -0.05500000 0.03252809 0.07852976
    endloop
  endfacet
  facet normal -1.00000000 0.00000000 0.00000000
    outer loop
      vertex -0.05500000 0.00000000 0.00000000
      vertex -0.05500000 0.03252809 0.07852976
      vertex -0.05500000 0.04722347 0.07067492
    endloop
  endfacet
  facet normal 1.00000000 0.00000000 0.00000000
    outer loop
      vertex 0.05500000 0.00000000 0.00000000
      vertex 0.05500000 0.04722347 0.07067492
      vertex 0.05500000 0.03252809 0.07852976
    endloop
  endfacet
  facet normal 0.00000000 -0.29028468 -0.95694034
    outer loop
      vertex -0.05500000 0.03252809 0.07852976
      vertex 0.05500000 0.03252809 0.07852976
      vertex 0.05500000 0.01658268 0.08336675
    endloop
  endfacet
  facet normal 0.00000000 -0.29028468 -0.95694034
    outer loop
      vertex -0.05500000 0.03252809 0.07852976
      vertex 0.05500000 0.01658268 0.08336675
      vertex -0.05500000 0.01658268 0.08336675
    endloop
  endfacet
  facet normal -1.00000000 0.00000000 0.00000000
    outer loop
      vertex -0.05500000 0.00000000 0.00000000
      vertex -0.05500000 0.01658268 0.08336675
      vertex -0.05500000 0.03252809 0.07852976
    endloop
  endfacet
  facet normal 1.00000000 0.00000000 0.00000000
    outer loop
      vertex 0.05500000 0.00000000 0.00000000
      vertex 0.05500000 0.03252809 0.07852976
      vertex 0.05500000 0.01658268 0.08336675
    endloop
  endfacet
  facet normal 0.00000000 -0.09801714 -0.99518473
    outer loop
      vertex -0.05500000 0.01658268 0.08336675
      vertex 0.05500000 0.01658268 0.08336675
      vertex 0.05500000 0.00000000 0.08500000
    endloop
  endfacet
  facet normal 0.00000000 -0.09801714 -0.99518473
    outer loop
      vertex -0.05500000 0.01658268 0.08336675
      vertex 0.05500000 0.00000000 0.08500000
      vertex -0.05500000 0.00000000 0.08500000
    endloop
  endfacet
  facet normal -1.00000000 0.00000000 0.00000000
    outer loop
      vertex -0.05500000 0.00000000 0.00000000
      vertex -0.05500000 0.00000000 0.08500000
      vertex -0.05500000 0.01658268 0.08336675
    endloop
  endfacet
  facet normal 1.00000000 0.00000000 0.00000000
    outer loop
      vertex 0.05500000 0.00000000 0.00000000
      vertex 0.05500000 0.01658268 0.08336675
      vertex 0.05500000 0.00000000 0.08500000
    endloop
  endfacet
  facet normal 0.00000000 0.09801714 -0.99518473
    outer loop
      vertex -0.05500000 0.00000000 0.08500000
      vertex 0.05500000 0.00000000 0.08500000
      vertex 0.05500000 -0.01658268 0.08336675
    endloop
  endfacet
  facet normal 0.00000000 0.09801714 -0.99518473
    outer loop
      vertex -0.05500000 0.00000000 0.08500000
      vertex 0.05500000 -0.01658268 0.08336675
      vertex -0.05500000 -0.01658268 0.08336675
    endloop
  endfacet
  facet normal -1.00000000 0.00000000 0.00000000
    outer loop
      vertex -0.05500000 0.00000000 0.00000000
      vertex -0.05500000 -0.01658268 0.08336675
      vertex -0.05500000 0.00000000 0.08500000
    endloop
  endfacet
  facet normal 1.00000000 0.00000000 -0.00000000
    outer loop
      vertex 0.05500000 0.00000000 0.00000000
      vertex 0.05500000 0.00000000 0.08500000
      vertex 0.05500000 -0.01658268 0.08336675
    endloop
  endfacet
  facet normal 0.00000000 0.29028468 -0.95694034
    outer loop
      vertex -0.05500000 -0.01658268 0.08336675
      vertex 0.05500000 -0.01658268 0.08336675
      vertex 0.05500000 -0.03252809 0.07852976
    endloop
  endfacet
  facet normal 0.00000000 0.29028468 -0.95694034
    outer loop
      vertex -0.05500000 -0.01658268 0.08336675
      vertex 0.05500000 -0.03252809 0.07852976
      vertex -0.05500000 -0.03252809 0.07852976
    endloop
  endfacet
  facet normal -1.00000000 0.00000000 0.00000000
    outer loop
      vertex -0.05500000 0.00000000 0.00000000
      vertex -0.05500000 -0.03252809 0.07852976
      vertex -0.05500000 -0.01658268 0.08336675
    endloop
  endfacet
  facet normal 1.00000000 0.00000000 0.00000000
    outer loop
      vertex 0.05500000 0.00000000 0.00000000
      vertex 0.05500000 -0.01658268 0.08336675
      vertex 0.05500000 -0.03252809 0.07852976
    endloop
  endfacet
  facet normal 0.00000000 0.47139674 -0.88192126
    outer loop
      vertex -0.05500000 -0.03252809 0.07852976
      vertex 0.05500000 -0.03252809 0.07852976
      vertex 0.05500000 -0.04722347 0.07067492
    endloop
  endfacet
  facet normal 0.00000000 0.47139674 -0.88192126
    outer loop
      vertex -0.05500000 -0.03252809 0.07852976
      vertex 0.05500000 -0.04722347 0.07067492
      vertex -0.05500000 -0.04722347 0.07067492
    endloop
  endfacet
  facet normal -1.00000000 0.00000000 0.00000000
    outer loop
      vertex -0.05500000 0.00000000 0.00000000
      vertex -0.05500000 -0.04722347 0.07067492
      vertex -0.05500000 -0.03252809 0.07852976
    endloop
  endfacet
  facet normal 1.00000000 0.00000000 0.00000000
    outer loop
      vertex 0.05500000 0.00000000 0.00000000
      vertex 0.05500000 -0.03252809 0.07852976
      vertex 0.05500000 -0.04722347 0.07067492
    endloop
  endfacet
  facet normal 0.00000000 0.63439328 -0.77301045
    outer loop
      vertex -0.05500000 -0.04722347 0.07067492
      vertex 0.05500000 -0.04722347 0.07067492
      vertex 0.05500000 -0.06010408 0.06010408
    endloop
  endfacet
  facet normal 0.00000000 0.63439328 -0.77301045
    outer loop
      vertex -0.05500000 -0.04722347 0.07067492
      vertex 0.05500000 -0.06010408 0.06010408
      vertex -0.05500000 -0.06010408 0.06010408
    endloop
  endfacet
  facet normal -1.00000000 0.00000000 0.00000000
    outer loop
      vertex -0.05500000 0.00000000 0.00000000
      vertex -0.05500000 -0.06010408 0.06010408
      vertex -0.05500000 -0.04722347 0.07067492
    endloop
  endfacet
  facet normal 1.00000000 0.00000000 0.00000000
    outer loop
      vertex 0.05500000 0.00000000 0.00000000
      vertex 0.05500000 -0.04722347 0.07067492
      vertex 0.05500000 -0.06010408 0.06010408
    endloop
  endfacet
  facet normal 0.00000000 0.77301045 -0.63439328
    outer loop
      vertex -0.05500000 -0.06010408 0.06010408
      vertex 0.05500000 -0.06010408 0.06010408
      vertex 0.05500000 -0.07067492 0.04722347
    endloop
  endfacet
  facet normal 0.00000000 0.77301045 -0.63439328
    outer loop
      vertex -0.05500000 -0.06010408 0.06010408
      vertex 0.05500000 -0.07067492 0.04722347
      vertex -0.05500000 -0.07067492 0.04722347
    endloop
  endfacet
  facet normal -1.00000000 0.00000000 0.00000000
    outer loop
      vertex -0.05500000 0.00000000 0.00000000
      vertex -0.05500000 -0.07067492 0.04722347
      vertex -0.05500000 -0.06010408 0.06010408
    endloop
  endfacet
  facet normal 1.00000000 0.00000000 0.00000000
    outer loop
      vertex 0.05500000 0.00000000 0.00000000
      vertex 0.05500000 -0.06010408 0.06010408
      vertex 0.05500000 -0.07067492 0.04722347
    endloop
  endfacet
  facet normal 0.00000000 0.88192126 -0.47139674
    outer loop
      vertex -0.05500000 -0.07067492 0.04722347
      vertex 0.05500000 -0.07067492 0.04722347
      vertex 0.05500000 -0.07852976 0.03252809
    endloop
  endfacet
  facet normal 0.00000000 0.88192126 -0.47139674
    outer loop
      vertex -0.05500000 -0.07067492 0.04722347
      vertex 0.05500000 -0.07852976 0.03252809
      vertex -0.05500000 -0.07852976 0.03252809
    endloop
  endfacet
  facet normal -1.00000000 0.00000000 0.00000000
    outer loop
      vertex -0.05500000 0.00000000 0.00000000
      vertex -0.05500000 -0.07852976 0.03252809
      vertex -0.05500000 -0.07067492 0.04722347
    endloop
  endfacet
  facet normal 1.00000000 0.00000000 0.00000000
    outer loop
      vertex 0.05500000 0.00000000 0.00000000
      vertex 0.05500000 -0.07067492 0.04722347
      vertex 0.05500000 -0.07852976 0.03252809
    endloop
  endfacet
  facet normal 0.00000000 0.95694034 -0.29028468
    outer loop
      vertex -0.05500000 -0.07852976 0.03252809
      vertex 0.05500000 -0.07852976 0.03252809
      vertex 0.05500000 -0.08336675 0.01658268
    endloop
  endfacet
  facet normal 0.00000000 0.95694034 -0.29028468
    outer loop
      vertex -0.05500000 -0.07852976 0.03252809
      vertex 0.05500000 -0.08336675 0.01658268
      vertex -0.05500000 -0.08336675 0.01658268
    endloop
  endfacet
  facet normal -1.00000000 0.00000000 0.00000000
    outer loop
      vertex -0.05500000 0.00000000 0.00000000
      vertex -0.05500000 -0.08336675 0.01658268
      vertex -0.05500000 -0.07852976 0.03252809
    endloop
  endfacet
  facet normal 1.00000000 0.00000000 0.00000000
    outer loop
      vertex 0.05500000 0.00000000 0.00000000
      vertex 0.05500000 -0.07852976 0.03252809
      vertex 0.05500000 -0.08336675 0.01658268
    endloop
  endfacet
  facet normal 0.00000000 0.99518473 -0.09801714
    outer loop
      vertex -0.05500000 -0.08336675 0.01658268
      vertex 0.05500000 -0.08336675 0.01658268
      vertex 0.05500000 -0.08500000 0.00000000
    endloop
  endfacet
  facet normal 0.00000000 0.99518473 -0.09801714
    outer loop
      vertex -0.05500000 -0.08336675 0.01658268
      vertex 0.05500000 -0.08500000 0.00000000
      vertex -0.05500000 -0.08500000 0.00000000
    endloop
  endfacet
  facet normal -1.00000000 0.00000000 0.00000000
    outer loop
      vertex -0.05500000 0.00000000 0.00000000
      vertex -0.05500000 -0.08500000 0.00000000
      vertex -0.05500000 -0.08336675 0.01658268
    endloop
  endfacet
  facet normal 1.00000000 0.00000000 0.00000000
    outer loop
      vertex 0.05500000 0.00000000 0.00000000
      vertex 0.05500000 -0.08336675 0.01658268
      vertex 0.05500000 -0.08500000 0.00000000
    endloop
  endfacet
  facet normal -0.00000000 0.99518473 0.09801714
    outer loop
      vertex -0.05500000 -0.08500000 0.00000000
      vertex 0.05500000 -0.08500000 0.00000000
      vertex 0.05500000 -0.08336675 -0.01658268
    endloop
  endfacet
  facet normal 0.00000000 0.99518473 0.09801714
    outer loop
      vertex -0.05500000 -0.08500000 0.00000000
      vertex 0.05500000 -0.08336675 -0.01658268
      vertex -0.05500000 -0.08336675 -0.01658268
    endloop
  endfacet
  facet normal -1.00000000 -0.00000000 0.00000000
    outer loop
      vertex -0.05500000 0.00000000 0.00000000
      vertex -0.05500000 -0.08336675 -0.01658268
      vertex -0.05500000 -0.08500000 0.00000000
    endloop
  endfacet
  facet normal 1.00000000 0.00000000 0.00000000
    outer loop
      vertex 0.05500000 0.00000000 0.00000000
      vertex 0.05500000 -0.08500000 0.00000000
      vertex 0.05500000 -0.08336675 -0.01658268
    endloop
  endfacet
  facet normal -0.00000000 0.95694034 0.29028468
    outer loop
      vertex -0.05500000 -0.08336675 -0.01658268
      vertex 0.05500000 -0.08336675 -0.01658268
      vertex 0.05500000 -0.07852976 -0.03252809
    endloop
  endfacet
  facet normal 0.00000000 0.95694034 0.29028468
    outer loop
      vertex -0.05500000 -0.08336675 -0.01658268
      vertex 0.05500000 -0.07852976 -0.03252809
      vertex -0.05500000 -0.07852976 -0.03252809
    endloop
  endfacet
  facet normal -1.00000000 0.00000000 0.00000000
    outer loop
      vertex -0.05500000 0.00000000 0.00000000
      vertex -0.05500000 -0.07852976 -0.03252809
      vertex -0.05500000 -0.08336675 -0.01658268
    endloop
  endfacet
  facet normal 1.00000000 0.00000000 0.00000000
    outer loop
      vertex 0.05500000 0.00000000 0.00000000
      vertex 0.05500000 -0.08336675 -0.01658268
      vertex 0.05500000 -0.07852976 -0.03252809
    endloop
  endfacet
  facet normal -0.00000000 0.88192126 0.47139674
    outer loop
      vertex -0.05500000 -0.07852976 -0.03252809
      vertex 0.05500000 -0.07852976 -0.03252809
      vertex 0.05500000 -0.07067492 -0.04722347
    endloop
  endfacet
  facet normal 0.00000000 0.88192126 0.47139674
    outer loop
      vertex -0.05500000 -0.07852976 -0.03252809
      vertex 0.05500000 -0.07067492 -0.04722347
      vertex -0.05500000 -0.07067492 -0.04722347
    endloop
  endfacet
  facet normal -1.00000000 0.00000000 0.00000000
    outer loop
      vertex -0.05500000 0.00000000 0.00000000
      vertex -0.05500000 -0.07067492 -0.04722347
      vertex -0.05500000 -0.07852976 -0.03252809
    endloop
  endfacet
  facet normal 1.00000000 0.00000000 0.00000000
    outer loop
      vertex 0.05500000 0.00000000 0.00000000
      vertex 0.05500000 -0.07852976 -0.03252809
      vertex 0.05500000 -0.07067492 -0.04722347
    endloop
  endfacet
  facet normal -0.00000000 0.77301045 0.63439328
    outer loop
      vertex -0.05500000 -0.07067492 -0.04722347
      vertex 0.05500000 -0.07067492 -0.04722347
      vertex 0.05500000 -0.06010408 -0.06010408
    endloop
  endfacet
  facet normal 0.00000000 0.77301045 0.63439328
    outer loop
      vertex -0.05500000 -0.07067492 -0.04722347
      vertex 0.05500000 -0.06010408 -0.06010408
      vertex -0.05500000 -0.06010408 -0.06010408
    endloop
  endfacet
  facet normal -1.00000000 0.00000000 0.00000000
    outer loop
      vertex -0.05500000 0.00000000 0.00000000
      vertex -0.05500000 -0.06010408 -0.06010408
      vertex -0.05500000 -0.07067492 -0.04722347
    endloop
  endfacet
  facet normal 1.00000000 0.00000000 0.00000000
    outer loop
      vertex 0.05500000 0.00000000 0.00000000
      vertex 0.05500000 -0.07067492 -0.04722347
      vertex 0.05500000 -0.06010408 -0.06010408
    endloop
  endfacet
  facet normal -0.00000000 0.63439328 0.77301045
    outer loop
      vertex -0.05500000 -0.06010408 -0.06010408
      vertex 0.05500000 -0.06010408 -0.06010408
      vertex 0.05500000 -0.04722347 -0.07067492
    endloop
  endfacet
  facet normal 0.00000000 0.63439328 0.77301045
    outer loop
      vertex -0.05500000 -0.06010408 -0.06010408
      vertex 0.05500000 -0.04722347 -0.07067492
      vertex -0.05500000 -0.04722347 -0.07067492
    endloop
  endfacet
  facet normal -1.00000000 0.00000000 0.00000000
    outer loop
      vertex -0.05500000 0.00000000 0.00000000
      vertex -0.05500000 -0.04722347 -0.07067492
      vertex -0.05500000 -0.06010408 -0.06010408
    endloop
  endfacet
  facet normal 1.00000000 0.00000000 0.00000000
    outer loop
      vertex 0.05500000 0.00000000 0.00000000
      vertex 0.05500000 -0.06010408 -0.06010408
      vertex 0.05500000 -0.04722347 -0.07067492
    endloop
  endfacet
  facet normal -0.00000000 0.47139674 0.88192126
    outer loop
      vertex -0.05500000 -0.04722347 -0.07067492
      vertex 0.05500000 -0.04722347 -0.07067492
      vertex 0.05500000 -0.03252809 -0.07852976
    endloop
  endfacet
  facet normal 0.00000000 0.47139674 0.88192126
    outer loop
      vertex -0.05500000 -0.04722347 -0.07067492
      vertex 0.05500000 -0.03252809 -0.07852976
      vertex -0.05500000 -0.03252809 -0.07852976
    endloop
  endfacet
  facet normal -1.00000000 0.00000000 0.00000000
    outer loop
      vertex -0.05500000 0.00000000 0.00000000
      vertex -0.05500000 -0.03252809 -0.07852976
      vertex -0.05500000 -0.04722347 -0.07067492
    endloop
  endfacet
  facet normal 1.00000000 0.00000000 0.00000000
    outer loop
      vertex 0.05500000 0.00000000 0.00000000
      vertex 0.05500000 -0.04722347 -0.07067492
      vertex 0.05500000 -0.03252809 -0.07852976
    endloop
  endfacet
  facet normal -0.00000000 0.29028468 0.95694034
    outer loop
      vertex -0.05500000 -0.03252809 -0.07852976
      vertex 0.05500000 -0.03252809 -0.07852976
      vertex 0.05500000 -0.01658268 -0.08336675
    endloop
  endfacet
  facet normal 0.00000000 0.29028468 0.95694034
    outer loop
      vertex -0.05500000 -0.03252809 -0.07852976
      vertex 0.05500000 -0.01658268 -0.08336675
      vertex -0.05500000 -0.01658268 -0.08336675
    endloop
  endfacet
  facet normal -1.00000000 0.00000000 0.00000000
    outer loop
      vertex -0.05500000 0.00000000 0.00000000
      vertex -0.05500000 -0.01658268 -0.08336675
      vertex -0.05500000 -0.03252809 -0.07852976
    endloop
  endfacet
  facet normal 1.00000000 0.00000000 0.00000000
    outer loop
      vertex 0.05500000 0.00000000 0.00000000
      vertex 0.05500000 -0.03252809 -0.07852976
      vertex 0.05500000 -0.01658268 -0.08336675
    endloop
  endfacet
  facet normal -0.00000000 0.09801714 0.99518473
    outer loop
      vertex -0.05500000 -0.01658268 -0.08336675
      vertex 0.05500000 -0.01658268 -0.08336675
      vertex 0.05500000 -0.00000000 -0.08500000
    endloop
  endfacet
  facet normal 0.00000000 0.09801714 0.99518473
    outer loop
      vertex -0.05500000 -0.01658268 -0.08336675
      vertex 0.05500000 -0.00000000 -0.08500000
      vertex -0.05500000 -0.00000000 -0.08500000
    endloop
  endfacet
  facet normal -1.00000000 0.00000000 0.00000000
    outer loop
      vertex -0.05500000 0.00000000 0.00000000
      vertex -0.05500000 -0.00000000 -0.08500000
      vertex -0.05500000 -0.01658268 -0.08336675
    endloop
  endfacet
  facet normal 1.00000000 0.00000000 0.00000000
    outer loop
      vertex 0.05500000 0.00000000 0.00000000
      vertex 0.05500000 -0.01658268 -0.08336675
      vertex 0.05500000 -0.00000000 -0.08500000
    endloop
  endfacet
  facet normal 0.00000000 -0.09801714 0.99518473
    outer loop
      vertex -0.05500000 -0.00000000 -0.08500000
      vertex 0.05500000 -0.00000000 -0.08500000
      vertex 0.05500000 0.01658268 -0.08336675
    endloop
  endfacet
  facet normal 0.00000000 -0.09801714 0.99518473
    outer loop
      vertex -0.05500000 -0.00000000 -0.08500000
      vertex 0.05500000 0.01658268 -0.08336675
      vertex -0.05500000 0.01658268 -0.08336675
    endloop
  endfacet
  facet normal -1.00000000 0.00000000 -0.00000000
    outer loop
      vertex -0.05500000 0.00000000 0.00000000
      vertex -0.05500000 0.01658268 -0.08336675
      vertex -0.05500000 -0.00000000 -0.08500000
    endloop
  endfacet
  facet normal 1.00000000 0.00000000 0.00000000
    outer loop
      vertex 0.05500000 0.00000000 0.00000000
      vertex 0.05500000 -0.00000000 -0.08500000
      vertex 0.05500000 0.01658268 -0.08336675
    endloop
  endfacet
  facet normal 0.00000000 -0.29028468 0.95694034
    outer loop
      vertex -0.05500000 0.01658268 -0.08336675
      vertex 0.05500000 0.01658268 -0.08336675
      vertex 0.05500000 0.03252809 -0.07852976
    endloop
  endfacet
  facet normal 0.00000000 -0.29028468 0.95694034
    outer loop
      vertex -0.05500000 0.01658268 -0.08336675
      vertex 0.05500000 0.03252809 -0.07852976
      vertex -0.05500000 0.03252809 -0.07852976
    endloop
  endfacet
  facet normal -1.00000000 0.00000000 0.00000000
    outer loop
      vertex -0.05500000 0.00000000 0.00000000
      vertex -0.05500000 0.03252809 -0.07852976
      vertex -0.05500000 0.01658268 -0.08336675
    endloop
  endfacet
  facet normal 1.00000000 0.00000000 0.00000000
    outer loop
      vertex 0.05500000 0.00000000 0.00000000
      vertex 0.05500000 0.01658268 -0.08336675
      vertex 0.05500000 0.03252809 -0.07852976
    endloop
  endfacet
  facet normal 0.00000000 -0.47139674 0.88192126
    outer loop
      vertex -0.05500000 0.03252809 -0.07852976
      vertex 0.05500000 0.03252809 -0.07852976
      vertex 0.05500000 0.04722347 -0.07067492
    endloop
  endfacet
  facet normal 0.00000000 -0.47139674 0.88192126
    outer loop
      vertex -0.05500000 0.03252809 -0.07852976
      vertex 0.05500000 0.04722347 -0.07067492
      vertex -0.05500000 0.04722347 -0.07067492
    endloop
  endfacet
  facet normal -1.00000000 0.00000000 0.00000000
    outer loop
      vertex -0.05500000 0.00000000 0.00000000
      vertex -0.05500000 0.04722347 -0.07067492
      vertex -0.05500000 0.03252809 -0.07852976
    endloop
  endfacet
  facet normal 1.00000000 0.00000000 0.00000000
    outer loop
      vertex 0.05500000 0.00000000 0.00000000
      vertex 0.05500000 0.03252809 -0.07852976
      vertex 0.05500000 0.04722347 -0.07067492
    endloop
  endfacet
  facet normal 0.00000000 -0.63439328 0.77301045
    outer loop
      vertex -0.05500000 0.04722347 -0.07067492
      vertex 0.05500000 0.04722347 -0.07067492
      vertex 0.05500000 0.06010408 -0.06010408
    endloop
  endfacet
  facet normal 0.00000000 -0.63439328 0.77301045
    outer loop
      vertex -0.05500000 0.04722347 -0.07067492
      vertex 0.05500000 0.06010408 -0.06010408
      vertex -0.05500000 0.06010408 -0.06010408
    endloop
  endfacet
  facet normal -1.00000000 0.00000000 0.00000000
    outer loop
      vertex -0.05500000 0.00000000 0.00000000
      vertex -0.05500000 0.06010408 -0.06010408
      vertex -0.05500000 0.04722347 -0.07067492
    endloop
  endfacet
  facet normal 1.00000000 0.00000000 0.00000000
    outer loop
      vertex 0.05500000 0.00000000 0.00000000
      vertex 0.05500000 0.04722347 -0.07067492
      vertex 0.05500000 0.06010408 -0.06010408
    endloop
  endfacet
  facet normal 0.00000000 -0.77301045 0.63439328
    outer loop
      vertex -0.05500000 0.06010408 -0.06010408
      vertex 0.05500000 0.06010408 -0.06010408
      vertex 0.05500000 0.07067492 -0.04722347
    endloop
  endfacet
  facet normal 0.00000000 -0.77301045 0.63439328
    outer loop
      vertex -0.05500000 0.06010408 -0.06010408
      vertex 0.05500000 0.07067492 -0.04722347
      vertex -0.05500000 0.07067492 -0.04722347
    endloop
  endfacet
  facet normal -1.00000000 0.00000000 0.00000000
    outer loop
      vertex -0.05500000 0.00000000 0.00000000
      vertex -0.05500000 0.07067492 -0.04722347
      vertex -0.05500000 0.06010408 -0.06010408
    endloop
  endfacet
  facet normal 1.00000000 0.00000000 0.00000000
    outer loop
      vertex 0.05500000 0.00000000 0.00000000
      vertex 0.05500000 0.06010408 -0.06010408
      vertex 0.05500000 0.07067492 -0.04722347
    endloop
  endfacet
  facet normal 0.00000000 -0.88192126 0.47139674
    outer loop
      vertex -0.05500000 0.07067492 -0.04722347
      vertex 0.05500000 0.07067492 -0.04722347
      vertex 0.05500000 0.07852976 -0.03252809
    endloop
  endfacet
  facet normal 0.00000000 -0.88192126 0.47139674
    outer loop
      vertex -0.05500000 0.07067492 -0.04722347
      vertex 0.05500000 0.07852976 -0.03252809
      vertex -0.05500000 0.07852976 -0.03252809
    endloop
  endfacet
  facet normal -1.00000000 0.00000000 0.00000000
    outer loop
      vertex -0.05500000 0.00000000 0.00000000
      vertex -0.05500000 0.07852976 -0.03252809
      vertex -0.05500000 0.07067492 -0.04722347
    endloop
  endfacet
  facet normal 1.00000000 0.00000000 0.00000000
    outer loop
      vertex 0.05500000 0.00000000 0.00000000
      vertex 0.05500000 0.07067492 -0.04722347
      vertex 0.05500000 0.07852976 -0.03252809
    endloop
  endfacet
  facet normal 0.00000000 -0.95694034 0.29028468
    outer loop
      vertex -0.05500000 0.07852976 -0.03252809
      vertex 0.05500000 0.07852976 -0.03252809
      vertex 0.05500000 0.08336675 -0.01658268
    endloop
  endfacet
  facet normal 0.00000000 -0.95694034 0.29028468
    outer loop
      vertex -0.05500000 0.07852976 -0.03252809
      vertex 0.05500000 0.08336675 -0.01658268
      vertex -0.05500000 0.08336675 -0.01658268
    endloop
  endfacet
  facet normal -1.00000000 0.00000000 0.00000000
    outer loop
      vertex -0.05500000 0.00000000 0.00000000
      vertex -0.05500000 0.08336675 -0.01658268
      vertex -0.05500000 0.07852976 -0.03252809
    endloop
  endfacet
  facet normal 1.00000000 0.00000000 0.00000000
    outer loop
      vertex 0.05500000 0.00000000 0.00000000
      vertex 0.05500000 0.07852976 -0.03252809
      vertex 0.05500000 0.08336675 -0.01658268
    endloop
  endfacet
  facet normal 0.00000000 -0.99518473 0.09801714
    outer loop
      vertex -0.05500000 0.08336675 -0.01658268
      vertex 0.05500000 0.08336675 -0.01658268
      vertex 0.05500000 0.08500000 0.00000000
    endloop
  endfacet
  facet normal 0.00000000 -0.99518473 0.09801714
    outer loop
      vertex -0.05500000 0.08336675 -0.01658268
      vertex 0.05500000 0.08500000 0.00000000
      vertex -0.05500000 0.08500000 0.00000000
    endloop
  endfacet
  facet normal -1.00000000 0.00000000 0.00000000
    outer loop
      vertex -0.05500000 0.00000000 0.00000000
      vertex -0.05500000 0.08500000 0.00000000
      vertex -0.05500000 0.08336675 -0.01658268
    endloop
  endfacet
  facet normal 1.00000000 -0.00000000 0.00000000
    outer loop
      vertex 0.05500000 0.00000000 0.00000000
      vertex 0.05500000 0.08336675 -0.01658268
      vertex 0.05500000 0.08500000 0.00000000
    endloop
  endfacet
endsolid joint_cap_visual
