solid tool_visual
  facet normal -0.13847320 -0.96329184 -0.22998695
    outer loop
      vertex 0.00000000 0.04500000 0.00000000
      vertex 0.16000000 0.02200000 0.00000000
      vertex 0.16000000 0.02032535 0.00701421
    endloop
  endfacet
  facet normal -0.13847320 -0.96329184 -0.22998695
    outer loop
      vertex 0.00000000 0.04500000 0.00000000
      vertex 0.16000000 0.02032535 0.00701421
      vertex 0.00000000 0.04157458 0.01434725
    endloop
  endfacet
  facet normal -1.00000000 0.00000000 0.00000000
    outer loop
      vertex 0.00000000 0.00000000 0.00000000
      vertex 0.00000000 0.04157458 0.01434725
      vertex 0.00000000 0.04500000 0.00000000
    endloop
  endfacet
  facet normal 1.00000000 0.00000000 0.00000000
    outer loop
      vertex 0.16000000 0.00000000 0.00000000
      vertex 0.16000000 0.02200000 0.00000000
      vertex 0.16000000 0.02032535 0.00701421
    endloop
  endfacet
  facet normal -0.12115843 -0.65484740 -0.74598627
    outer loop
      vertex 0.00000000 0.04157458 0.01434725
      vertex 0.16000000 0.02032535 0.00701421
      vertex 0.16000000 0.01555635 0.01120057
    endloop
  endfacet
  facet normal -0.12115843 -0.65484740 -0.74598627
    outer loop
      vertex 0.00000000 0.04157458 0.01434725
      vertex 0.16000000 0.01555635 0.01120057
      vertex 0.00000000 0.03181981 0.02291026
    endloop
  endfacet
  facet normal -1.00000000 0.00000000 0.00000000
    outer loop
      vertex 0.00000000 0.00000000 0.00000000
      vertex 0.00000000 0.03181981 0.02291026
      vertex 0.00000000 0.04157458 0.01434725
    endloop
  endfacet
  facet normal 1.00000000 0.00000000 0.00000000
    outer loop
      vertex 0.16000000 0.00000000 0.00000000
      vertex 0.16000000 0.02032535 0.00701421
      vertex 0.16000000 0.01555635 0.01120057
    endloop
  endfacet
  facet normal -0.08788897 -0.15632528 -0.98378755
    outer loop
      vertex 0.00000000 0.03181981 0.02291026
      vertex 0.16000000 0.01555635 0.01120057
      vertex 0.16000000 0.00841904 0.01233470
    endloop
  endfacet
  facet normal -0.08788897 -0.15632528 -0.98378755
    outer loop
      vertex 0.00000000 0.03181981 0.02291026
      vertex 0.16000000 0.00841904 0.01233470
      vertex 0.00000000 0.01722075 0.02523007
    endloop
  endfacet
  facet normal -1.00000000 0.00000000 0.00000000
    outer loop
      vertex 0.00000000 0.00000000 0.00000000
      vertex 0.00000000 0.01722075 0.02523007
      vertex 0.00000000 0.03181981 0.02291026
    endloop
  endfacet
  facet normal 1.00000000 0.00000000 0.00000000
    outer loop
      vertex 0.16000000 0.00000000 0.00000000
      vertex 0.16000000 0.01555635 0.01120057
      vertex 0.16000000 0.00841904 0.01233470
    endloop
  endfacet
  facet normal -0.08024031 0.00174053 -0.99677403
    outer loop
      vertex 0.00000000 0.01722075 0.02523007
      vertex 0.16000000 0.00841904 0.01233470
      vertex 0.16000000 0.00000000 0.01232000
    endloop
  endfacet
  facet normal -0.08024031 0.00174053 -0.99677403
    outer loop
      vertex 0.00000000 0.01722075 0.02523007
      vertex 0.16000000 0.00000000 0.01232000
      vertex 0.00000000 0.00000000 0.02520000
    endloop
  endfacet
  facet normal -1.00000000 0.00000000 0.00000000
    outer loop
      vertex 0.00000000 0.00000000 0.00000000
      vertex 0.00000000 0.00000000 0.02520000
      vertex 0.00000000 0.01722075 0.02523007
    endloop
  endfacet
  facet normal 1.00000000 0.00000000 0.00000000
    outer loop
      vertex 0.16000000 0.00000000 0.00000000
      vertex 0.16000000 0.00841904 0.01233470
      vertex 0.16000000 0.00000000 0.01232000
    endloop
  endfacet
  facet normal -0.08024031 -0.00174053 -0.99677403
    outer loop
      vertex 0.00000000 0.00000000 0.02520000
      vertex 0.16000000 0.00000000 0.01232000
      vertex 0.16000000 -0.00841904 0.01233470
    endloop
  endfacet
  facet normal -0.08024031 -0.00174053 -0.99677403
    outer loop
      vertex 0.00000000 0.00000000 0.02520000
      vertex 0.16000000 -0.00841904 0.01233470
      vertex 0.00000000 -0.01722075 0.02523007
    endloop
  endfacet
  facet normal -1.00000000 0.00000000 0.00000000
    outer loop
      vertex 0.00000000 0.00000000 0.00000000
      vertex 0.00000000 -0.01722075 0.02523007
      vertex 0.00000000 0.00000000 0.02520000
    endloop
  endfacet
  facet normal 1.00000000 0.00000000 -0.00000000
    outer loop
      vertex 0.16000000 0.00000000 0.00000000
      vertex 0.16000000 0.00000000 0.01232000
      vertex 0.16000000 -0.00841904 0.01233470
    endloop
  endfacet
  facet normal -0.08788897 0.15632528 -0.98378755
    outer loop
      vertex 0.00000000 -0.01722075 0.02523007
      vertex 0.16000000 -0.00841904 0.01233470
      vertex 0.16000000 -0.01555635 0.01120057
    endloop
  endfacet
  facet normal -0.08788897 0.15632528 -0.98378755
    outer loop
      vertex 0.00000000 -0.01722075 0.02523007
      vertex 0.16000000 -0.01555635 0.01120057
      vertex 0.00000000 -0.03181981 0.02291026
    endloop
  endfacet
  facet normal -1.00000000 0.00000000 0.00000000
    outer loop
      vertex 0.00000000 0.00000000 0.00000000
      vertex 0.00000000 -0.03181981 0.02291026
      vertex 0.00000000 -0.01722075 0.02523007
    endloop
  endfacet
  facet normal 1.00000000 0.00000000 0.00000000
    outer loop
      vertex 0.16000000 0.00000000 0.00000000
      vertex 0.16000000 -0.00841904 0.01233470
      vertex 0.16000000 -0.01555635 0.01120057
    endloop
  endfacet
  facet normal -0.12115843 0.65484740 -0.74598627
    outer loop
      vertex 0.00000000 -0.03181981 0.02291026
      vertex 0.16000000 -0.01555635 0.01120057
      vertex 0.16000000 -0.02032535 0.00701421
    endloop
  endfacet
  facet normal -0.12115843 0.65484740 -0.74598627
    outer loop
      vertex 0.00000000 -0.03181981 0.02291026
      vertex 0.16000000 -0.02032535 0.00701421
      vertex 0.00000000 -0.04157458 0.01434725
    endloop
  endfacet
  facet normal -1.00000000 0.00000000 0.00000000
    outer loop
      vertex 0.00000000 0.00000000 0.00000000
      vertex 0.00000000 -0.04157458 0.01434725
      vertex 0.00000000 -0.03181981 0.02291026
    endloop
  endfacet
  facet normal 1.00000000 0.00000000 0.00000000
    outer loop
      vertex 0.16000000 0.00000000 0.00000000
      vertex 0.16000000 -0.01555635 0.01120057
      vertex 0.16000000 -0.02032535 0.00701421
    endloop
  endfacet
  facet normal -0.13847320 0.96329184 -0.22998695
    outer loop
      vertex 0.00000000 -0.04157458 0.01434725
      vertex 0.16000000 -0.02032535 0.00701421
      vertex 0.16000000 -0.02200000 0.00000000
    endloop
  endfacet
  facet normal -0.13847320 0.96329184 -0.22998695
    outer loop
      vertex 0.00000000 -0.04157458 0.01434725
      vertex 0.16000000 -0.02200000 0.00000000
      vertex 0.00000000 -0.04500000 0.00000000
    endloop
  endfacet
  facet normal -1.00000000 0.00000000 0.00000000
    outer loop
      vertex 0.00000000 0.00000000 0.00000000
      vertex 0.00000000 -0.04500000 0.00000000
      vertex 0.00000000 -0.04157458 0.01434725
    endloop
  endfacet
  facet normal 1.00000000 0.00000000 0.00000000
    outer loop
      vertex 0.16000000 0.00000000 0.00000000
      vertex 0.16000000 -0.02032535 0.00701421
      vertex 0.16000000 -0.02200000 0.00000000
    endloop
  endfacet
  facet normal -0.13847320 0.96329184 0.22998695
    outer loop
      vertex 0.00000000 -0.04500000 0.00000000
      vertex 0.16000000 -0.02200000 0.00000000
      vertex 0.16000000 -0.02032535 -0.00701421
    endloop
  endfacet
  facet normal -0.13847320 0.96329184 0.22998695
    outer loop
      vertex 0.00000000 -0.04500000 0.00000000
      vertex 0.16000000 -0.02032535 -0.00701421
      vertex 0.00000000 -0.04157458 -0.01434725
    endloop
  endfacet
  facet normal -1.00000000 -0.00000000 0.00000000
    outer loop
      vertex 0.00000000 0.00000000 0.00000000
      vertex 0.00000000 -0.04157458 -0.01434725
      vertex 0.00000000 -0.04500000 0.00000000
    endloop
  endfacet
  facet normal 1.00000000 0.00000000 0.00000000
    outer loop
      vertex 0.16000000 0.00000000 0.00000000
      vertex 0.16000000 -0.02200000 0.00000000
      vertex 0.16000000 -0.02032535 -0.00701421
    endloop
  endfacet
  facet normal -0.12115843 0.65484740 0.74598627
    outer loop
      vertex 0.00000000 -0.04157458 -0.01434725
      vertex 0.16000000 -0.02032535 -0.00701421
      vertex 0.16000000 -0.01555635 -0.01120057
    endloop
  endfacet
  facet normal -0.12115843 0.65484740 0.74598627
    outer loop
      vertex 0.00000000 -0.04157458 -0.01434725
      vertex 0.16000000 -0.01555635 -0.01120057
      vertex 0.00000000 -0.03181981 -0.02291026
    endloop
  endfacet
  facet normal -1.00000000 0.00000000 0.00000000
    outer loop
      vertex 0.00000000 0.00000000 0.00000000
      vertex 0.00000000 -0.03181981 -0.02291026
      vertex 0.00000000 -0.04157458 -0.01434725
    endloop
  endfacet
  facet normal 1.00000000 0.00000000 0.00000000
    outer loop
      vertex 0.16000000 0.00000000 0.00000000
      vertex 0.16000000 -0.02032535 -0.00701421
      vertex 0.16000000 -0.01555635 -0.01120057
    endloop
  endfacet
  facet normal -0.08788897 0.15632528 0.98378755
    outer loop
      vertex 0.00000000 -0.03181981 -0.02291026
      vertex 0.16000000 -0.01555635 -0.01120057
      vertex 0.16000000 -0.00841904 -0.01233470
    endloop
  endfacet
  facet normal -0.08788897 0.15632528 0.98378755
    outer loop
      vertex 0.00000000 -0.03181981 -0.02291026
      vertex 0.16000000 -0.00841904 -0.01233470
      vertex 0.00000000 -0.01722075 -0.02523007
    endloop
  endfacet
  facet normal -1.00000000 0.00000000 0.00000000
    outer loop
      vertex 0.00000000 0.00000000 0.00000000
      vertex 0.00000000 -0.01722075 -0.02523007
      vertex 0.00000000 -0.03181981 -0.02291026
    endloop
  endfacet
  facet normal 1.00000000 0.00000000 0.00000000
    outer loop
      vertex 0.16000000 0.00000000 0.00000000
      vertex 0.16000000 -0.01555635 -0.01120057
      vertex 0.16000000 -0.00841904 -0.01233470
    endloop
  endfacet
  facet normal -0.08024031 -0.00174053 0.99677403
    outer loop
      vertex 0.00000000 -0.01722075 -0.02523007
      vertex 0.16000000 -0.00841904 -0.01233470
      vertex 0.16000000 -0.00000000 -0.01232000
    endloop
  endfacet
  facet normal -0.08024031 -0.00174053 0.99677403
    outer loop
      vertex 0.00000000 -0.01722075 -0.02523007
      vertex 0.16000000 -0.00000000 -0.01232000
      vertex 0.00000000 -0.00000000 -0.02520000
    endloop
  endfacet
  facet normal -1.00000000 0.00000000 0.00000000
    outer loop
      vertex 0.00000000 0.00000000 0.00000000
      vertex 0.00000000 -0.00000000 -0.02520000
      vertex 0.00000000 -0.01722075 -0.02523007
    endloop
  endfacet
  facet normal 1.00000000 0.00000000 0.00000000
    outer loop
      vertex 0.16000000 0.00000000 0.00000000
      vertex 0.16000000 -0.00841904 -0.01233470
      vertex 0.16000000 -0.00000000 -0.01232000
    endloop
  endfacet
  facet normal -0.08024031 0.00174053 0.99677403
    outer loop
      vertex 0.00000000 -0.00000000 -0.02520000
      vertex 0.16000000 -0.00000000 -0.01232000
      vertex 0.16000000 0.00841904 -0.01233470
    endloop
  endfacet
  facet normal -0.08024031 0.00174053 0.99677403
    outer loop
      vertex 0.00000000 -0.00000000 -0.02520000
      vertex 0.16000000 0.00841904 -0.01233470
      vertex 0.00000000 0.01722075 -0.02523007
    endloop
  endfacet
  facet normal -1.00000000 0.00000000 -0.00000000
    outer loop
      vertex 0.00000000 0.00000000 0.00000000
      vertex 0.00000000 0.01722075 -0.02523007
      vertex 0.00000000 -0.00000000 -0.02520000
    endloop
  endfacet
  facet normal 1.00000000 0.00000000 0.00000000
    outer loop
      vertex 0.16000000 0.00000000 0.00000000
      vertex 0.16000000 -0.00000000 -0.01232000
      vertex 0.16000000 0.00841904 -0.01233470
    endloop
  endfacet
  facet normal -0.08788897 -0.15632528 0.98378755
    outer loop
      vertex 0.00000000 0.01722075 -0.02523007
      vertex 0.16000000 0.00841904 -0.01233470
      vertex 0.16000000 0.01555635 -0.01120057
    endloop
  endfacet
  facet normal -0.08788897 -0.15632528 0.98378755
    outer loop
      vertex 0.00000000 0.01722075 -0.02523007
      vertex 0.16000000 0.01555635 -0.01120057
      vertex 0.00000000 0.03181981 -0.02291026
    endloop
  endfacet
  facet normal -1.00000000 0.00000000 0.00000000
    outer loop
      vertex 0.00000000 0.00000000 0.00000000
      vertex 0.00000000 0.03181981 -0.02291026
      vertex 0.00000000 0.01722075 -0.02523007
    endloop
  endfacet
  facet normal 1.00000000 0.00000000 0.00000000
    outer loop
      vertex 0.16000000 0.00000000 0.00000000
      vertex 0.16000000 0.00841904 -0.01233470
      vertex 0.16000000 0.01555635 -0.01120057
    endloop
  endfacet
  facet normal -0.12115843 -0.65484740 0.74598627
    outer loop
      vertex 0.00000000 0.03181981 -0.02291026
      vertex 0.16000000 0.01555635 -0.01120057
      vertex 0.16000000 0.02032535 -0.00701421
    endloop
  endfacet
  facet normal -0.12115843 -0.65484740 0.74598627
    outer loop
      vertex 0.00000000 0.03181981 -0.02291026
      vertex 0.16000000 0.02032535 -0.00701421
      vertex 0.00000000 0.04157458 -0.01434725
    endloop
  endfacet
  facet normal -1.00000000 0.00000000 0.00000000
    outer loop
      vertex 0.00000000 0.00000000 0.00000000
      vertex 0.00000000 0.04157458 -0.01434725
      vertex 0.00000000 0.03181981 -0.02291026
    endloop
  endfacet
  facet normal 1.00000000 0.00000000 0.00000000
    outer loop
      vertex 0.16000000 0.00000000 0.00000000
      vertex 0.16000000 0.01555635 -0.01120057
      vertex 0.16000000 0.02032535 -0.00701421
    endloop
  endfacet
  facet normal -0.13847320 -0.96329184 0.22998695
    outer loop
      vertex 0.00000000 0.04157458 -0.01434725
      vertex 0.16000000 0.02032535 -0.00701421
      vertex 0.16000000 0.02200000 0.00000000
    endloop
  endfacet
  facet normal -0.13847320 -0.96329184 0.22998695
    outer loop
      vertex 0.00000000 0.04157458 -0.01434725
      vertex 0.16000000 0.02200000 0.00000000
      vertex 0.00000000 0.04500000 0.00000000
    endloop
  endfacet
  facet normal -1.00000000 0.00000000 0.00000000
    outer loop
      vertex 0.00000000 0.00000000 0.00000000
      vertex 0.00000000 0.04500000 0.00000000
      vertex 0.00000000 0.04157458 -0.01434725
    endloop
  endfacet
  facet normal 1.00000000 -0.00000000 0.00000000
    outer loop
      vertex 0.16000000 0.00000000 0.00000000
      vertex 0.16000000 0.02032535 -0.00701421
      vertex 0.16000000 0.02200000 0.00000000
    endloop
  endfacet
endsolid tool_visual
