solid upper_arm_visual
  facet normal -0.03493567 -0.97819879 -0.20471110
    outer loop
      vertex 0.00000000 0.07500000 0.00000000
      vertex 0.42000000 0.06000000 0.00000000
      vertex 0.42000000 0.05638156 0.01729050
    endloop
  endfacet
  facet normal -0.03493567 -0.97819879 -0.20471110
    outer loop
      vertex 0.00000000 0.07500000 0.00000000
      vertex 0.42000000 0.05638156 0.01729050
      vertex 0.00000000 0.07047695 0.02161312
    endloop
  endfacet
  facet normal -1.00000000 0.00000000 0.00000000
    outer loop
      vertex 0.00000000 0.00000000 0.00000000
      vertex 0.00000000 0.07047695 0.02161312
      vertex 0.00000000 0.07500000 0.00000000
    endloop
  endfacet
  facet normal 1.00000000 0.00000000 0.00000000
    outer loop
      vertex 0.42000000 0.00000000 0.00000000
      vertex 0.42000000 0.06000000 0.00000000
      vertex 0.42000000 0.05638156 0.01729050
    endloop
  endfacet
  facet normal -0.03179690 -0.74213924 -0.66949108
    outer loop
      vertex 0.00000000 0.07047695 0.02161312
      vertex 0.42000000 0.05638156 0.01729050
      vertex 0.42000000 0.04596267 0.02883997
    endloop
  endfacet
  facet normal -0.03179690 -0.74213924 -0.66949108
    outer loop
      vertex 0.00000000 0.07047695 0.02161312
      vertex 0.42000000 0.04596267 0.02883997
      vertex 0.00000000 0.05745333 0.03604996
    endloop
  endfacet
  facet normal -1.00000000 0.00000000 0.00000000
    outer loop
      vertex 0.00000000 0.00000000 0.00000000
      vertex 0.00000000 0.05745333 0.03604996
      vertex 0.00000000 0.07047695 0.02161312
    endloop
  endfacet
  facet normal 1.00000000 0.00000000 0.00000000
    outer loop
      vertex 0.42000000 0.00000000 0.00000000
      vertex 0.42000000 0.05638156 0.01729050
      vertex 0.42000000 0.04596267 0.02883997
    endloop
  endfacet
  facet normal -0.02383235 -0.26652176 -0.96353421
    outer loop
      vertex 0.00000000 0.05745333 0.03604996
      vertex 0.42000000 0.04596267 0.02883997
      vertex 0.42000000 0.03000000 0.03325538
    endloop
  endfacet
  facet normal -0.02383235 -0.26652176 -0.96353421
    outer loop
      vertex 0.00000000 0.05745333 0.03604996
      vertex 0.42000000 0.03000000 0.03325538
      vertex 0.00000000 0.03750000 0.04156922
    endloop
  endfacet
  facet normal -1.00000000 0.00000000 0.00000000
    outer loop
      vertex 0.00000000 0.00000000 0.00000000
      vertex 0.00000000 0.03750000 0.04156922
      vertex 0.00000000 0.05745333 0.03604996
    endloop
  endfacet
  facet normal 1.00000000 0.00000000 0.00000000
    outer loop
      vertex 0.42000000 0.00000000 0.00000000
      vertex 0.42000000 0.04596267 0.02883997
      vertex 0.42000000 0.03000000 0.03325538
    endloop
  endfacet
  facet normal -0.02015520 -0.02063989 -0.99958379
    outer loop
      vertex 0.00000000 0.03750000 0.04156922
      vertex 0.42000000 0.03000000 0.03325538
      vertex 0.42000000 0.01041889 0.03365970
    endloop
  endfacet
  facet normal -0.02015520 -0.02063989 -0.99958379
    outer loop
      vertex 0.00000000 0.03750000 0.04156922
      vertex 0.42000000 0.01041889 0.03365970
      vertex 0.00000000 0.01302361 0.04207462
    endloop
  endfacet
  facet normal -1.00000000 0.00000000 0.00000000
    outer loop
      vertex 0.00000000 0.00000000 0.00000000
      vertex 0.00000000 0.01302361 0.04207462
      vertex 0.00000000 0.03750000 0.04156922
    endloop
  endfacet
  facet normal 1.00000000 0.00000000 0.00000000
    outer loop
      vertex 0.42000000 0.00000000 0.00000000
      vertex 0.42000000 0.03000000 0.03325538
      vertex 0.42000000 0.01041889 0.03365970
    endloop
  endfacet
  facet normal -0.02003151 0.00000000 -0.99979935
    outer loop
      vertex 0.00000000 0.01302361 0.04207462
      vertex 0.42000000 0.01041889 0.03365970
      vertex 0.42000000 -0.01041889 0.03365970
    endloop
  endfacet
  facet normal -0.02003151 -0.00000000 -0.99979935
    outer loop
      vertex 0.00000000 0.01302361 0.04207462
      vertex 0.42000000 -0.01041889 0.03365970
      vertex 0.00000000 -0.01302361 0.04207462
    endloop
  endfacet
  facet normal -1.00000000 0.00000000 0.00000000
    outer loop
      vertex 0.00000000 0.00000000 0.00000000
      vertex 0.00000000 -0.01302361 0.04207462
      vertex 0.00000000 0.01302361 0.04207462
    endloop
  endfacet
  facet normal 1.00000000 0.00000000 -0.00000000
    outer loop
      vertex 0.42000000 0.00000000 0.00000000
      vertex 0.42000000 0.01041889 0.03365970
      vertex 0.42000000 -0.01041889 0.03365970
    endloop
  endfacet
  facet normal -0.02015520 0.02063989 -0.99958379
    outer loop
      vertex 0.00000000 -0.01302361 0.04207462
      vertex 0.42000000 -0.01041889 0.03365970
      vertex 0.42000000 -0.03000000 0.03325538
    endloop
  endfacet
  facet normal -0.02015520 0.02063989 -0.99958379
    outer loop
      vertex 0.00000000 -0.01302361 0.04207462
      vertex 0.42000000 -0.03000000 0.03325538
      vertex 0.00000000 -0.03750000 0.04156922
    endloop
  endfacet
  facet normal -1.00000000 0.00000000 0.00000000
    outer loop
      vertex 0.00000000 0.00000000 0.00000000
      vertex 0.00000000 -0.03750000 0.04156922
      vertex 0.00000000 -0.01302361 0.04207462
    endloop
  endfacet
  facet normal 1.00000000 0.00000000 0.00000000
    outer loop
      vertex 0.42000000 0.00000000 0.00000000
      vertex 0.42000000 -0.01041889 0.03365970
      vertex 0.42000000 -0.03000000 0.03325538
    endloop
  endfacet
  facet normal -0.02383235 0.26652176 -0.96353421
    outer loop
      vertex 0.00000000 -0.03750000 0.04156922
      vertex 0.42000000 -0.03000000 0.03325538
      vertex 0.42000000 -0.04596267 0.02883997
    endloop
  endfacet
  facet normal -0.02383235 0.26652176 -0.96353421
    outer loop
      vertex 0.00000000 -0.03750000 0.04156922
      vertex 0.42000000 -0.04596267 0.02883997
      vertex 0.00000000 -0.05745333 0.03604996
    endloop
  endfacet
  facet normal -1.00000000 0.00000000 0.00000000
    outer loop
      vertex 0.00000000 0.00000000 0.00000000
      vertex 0.00000000 -0.05745333 0.03604996
      vertex 0.00000000 -0.03750000 0.04156922
    endloop
  endfacet
  facet normal 1.00000000 0.00000000 0.00000000
    outer loop
      vertex 0.42000000 0.00000000 0.00000000
      vertex 0.42000000 -0.03000000 0.03325538
      vertex 0.42000000 -0.04596267 0.02883997
    endloop
  endfacet
  facet normal -0.03179690 0.74213924 -0.66949108
    outer loop
      vertex 0.00000000 -0.05745333 0.03604996
      vertex 0.42000000 -0.04596267 0.02883997
      vertex 0.42000000 -0.05638156 0.01729050
    endloop
  endfacet
  facet normal -0.03179690 0.74213924 -0.66949108
    outer loop
      vertex 0.00000000 -0.05745333 0.03604996
      vertex 0.42000000 -0.05638156 0.01729050
      vertex 0.00000000 -0.07047695 0.02161312
    endloop
  endfacet
  facet normal -1.00000000 0.00000000 0.00000000
    outer loop
      vertex 0.00000000 0.00000000 0.00000000
      vertex 0.00000000 -0.07047695 0.02161312
      vertex 0.00000000 -0.05745333 0.03604996
    endloop
  endfacet
  facet normal 1.00000000 0.00000000 0.00000000
    outer loop
      vertex 0.42000000 0.00000000 0.00000000
      vertex 0.42000000 -0.04596267 0.02883997
      vertex 0.42000000 -0.05638156 0.01729050
    endloop
  endfacet
  facet normal -0.03493567 0.97819879 -0.20471110
    outer loop
      vertex 0.00000000 -0.07047695 0.02161312
      vertex 0.42000000 -0.05638156 0.01729050
      vertex 0.42000000 -0.06000000 0.00000000
    endloop
  endfacet
  facet normal -0.03493567 0.97819879 -0.20471110
    outer loop
      vertex 0.00000000 -0.07047695 0.02161312
      vertex 0.42000000 -0.06000000 0.00000000
      vertex 0.00000000 -0.07500000 0.00000000
    endloop
  endfacet
  facet normal -1.00000000 0.00000000 0.00000000
    outer loop
      vertex 0.00000000 0.00000000 0.00000000
      vertex 0.00000000 -0.07500000 0.00000000
      vertex 0.00000000 -0.07047695 0.02161312
    endloop
  endfacet
  facet normal 1.00000000 0.00000000 0.00000000
    outer loop
      vertex 0.42000000 0.00000000 0.00000000
      vertex 0.42000000 -0.05638156 0.01729050
      vertex 0.42000000 -0.06000000 0.00000000
    endloop
  endfacet
  facet normal -0.03493567 0.97819879 0.20471110
    outer loop
      vertex 0.00000000 -0.07500000 0.00000000
      vertex 0.42000000 -0.06000000 0.00000000
      vertex 0.42000000 -0.05638156 -0.01729050
    endloop
  endfacet
  facet normal -0.03493567 0.97819879 0.20471110
    outer loop
      vertex 0.00000000 -0.07500000 0.00000000
      vertex 0.42000000 -0.05638156 -0.01729050
      vertex 0.00000000 -0.07047695 -0.02161312
    endloop
  endfacet
  facet normal -1.00000000 -0.00000000 0.00000000
    outer loop
      vertex 0.00000000 0.00000000 0.00000000
      vertex 0.00000000 -0.07047695 -0.02161312
      vertex 0.00000000 -0.07500000 0.00000000
    endloop
  endfacet
  facet normal 1.00000000 0.00000000 0.00000000
    outer loop
      vertex 0.42000000 0.00000000 0.00000000
      vertex 0.42000000 -0.06000000 0.00000000
      vertex 0.42000000 -0.05638156 -0.01729050
    endloop
  endfacet
  facet normal -0.03179690 0.74213924 0.66949108
    outer loop
      vertex 0.00000000 -0.07047695 -0.02161312
      vertex 0.42000000 -0.05638156 -0.01729050
      vertex 0.42000000 -0.04596267 -0.02883997
    endloop
  endfacet
  facet normal -0.03179690 0.74213924 0.66949108
    outer loop
      vertex 0.00000000 -0.07047695 -0.02161312
      vertex 0.42000000 -0.04596267 -0.02883997
      vertex 0.00000000 -0.05745333 -0.03604996
    endloop
  endfacet
  facet normal -1.00000000 0.00000000 0.00000000
    outer loop
      vertex 0.00000000 0.00000000 0.00000000
      vertex 0.00000000 -0.05745333 -0.03604996
      vertex 0.00000000 -0.07047695 -0.02161312
    endloop
  endfacet
  facet normal 1.00000000 0.00000000 0.00000000
    outer loop
      vertex 0.42000000 0.00000000 0.00000000
      vertex 0.42000000 -0.05638156 -0.01729050
      vertex 0.42000000 -0.04596267 -0.02883997
    endloop
  endfacet
  facet normal -0.02383235 0.26652176 0.96353421
    outer loop
      vertex 0.00000000 -0.05745333 -0.03604996
      vertex 0.42000000 -0.04596267 -0.02883997
      vertex 0.42000000 -0.03000000 -0.03325538
    endloop
  endfacet
  facet normal -0.02383235 0.26652176 0.96353421
    outer loop
      vertex 0.00000000 -0.05745333 -0.03604996
      vertex 0.42000000 -0.03000000 -0.03325538
      vertex 0.00000000 -0.03750000 -0.04156922
    endloop
  endfacet
  facet normal -1.00000000 0.00000000 0.00000000
    outer loop
      vertex 0.00000000 0.00000000 0.00000000
      vertex 0.00000000 -0.03750000 -0.04156922
      vertex 0.00000000 -0.05745333 -0.03604996
    endloop
  endfacet
  facet normal 1.00000000 0.00000000 0.00000000
    outer loop
      vertex 0.42000000 0.00000000 0.00000000
      vertex 0.42000000 -0.04596267 -0.02883997
      vertex 0.42000000 -0.03000000 -0.03325538
    endloop
  endfacet
  facet normal -0.02015520 0.02063989 0.99958379
    outer loop
      vertex 0.00000000 -0.03750000 -0.04156922
      vertex 0.42000000 -0.03000000 -0.03325538
      vertex 0.42000000 -0.01041889 -0.03365970
    endloop
  endfacet
  facet normal -0.02015520 0.02063989 0.99958379
    outer loop
      vertex 0.00000000 -0.03750000 -0.04156922
      vertex 0.42000000 -0.01041889 -0.03365970
      vertex 0.00000000 -0.01302361 -0.04207462
    endloop
  endfacet
  facet normal -1.00000000 0.00000000 0.00000000
    outer loop
      vertex 0.00000000 0.00000000 0.00000000
      vertex 0.00000000 -0.01302361 -0.04207462
      vertex 0.00000000 -0.03750000 -0.04156922
    endloop
  endfacet
  facet normal 1.00000000 0.00000000 0.00000000
    outer loop
      vertex 0.42000000 0.00000000 0.00000000
      vertex 0.42000000 -0.03000000 -0.03325538
      vertex 0.42000000 -0.01041889 -0.03365970
    endloop
  endfacet
  facet normal -0.02003151 0.00000000 0.99979935
    outer loop
      vertex 0.00000000 -0.01302361 -0.04207462
      vertex 0.42000000 -0.01041889 -0.03365970
      vertex 0.42000000 0.01041889 -0.03365970
    endloop
  endfacet
  facet normal -0.02003151 -0.00000000 0.99979935
    outer loop
      vertex 0.00000000 -0.01302361 -0.04207462
      vertex 0.42000000 0.01041889 -0.03365970
      vertex 0.00000000 0.01302361 -0.04207462
    endloop
  endfacet
  facet normal -1.00000000 0.00000000 -0.00000000
    outer loop
      vertex 0.00000000 0.00000000 0.00000000
      vertex 0.00000000 0.01302361 -0.04207462
      vertex 0.00000000 -0.01302361 -0.04207462
    endloop
  endfacet
  facet normal 1.00000000 0.00000000 0.00000000
    outer loop
      vertex 0.42000000 0.00000000 0.00000000
      vertex 0.42000000 -0.01041889 -0.03365970
      vertex 0.42000000 0.01041889 -0.03365970
    endloop
  endfacet
  facet normal -0.02015520 -0.02063989 0.99958379
    outer loop
      vertex 0.00000000 0.01302361 -0.04207462
      vertex 0.42000000 0.01041889 -0.03365970
      vertex 0.42000000 0.03000000 -0.03325538
    endloop
  endfacet
  facet normal -0.02015520 -0.02063989 0.99958379
    outer loop
      vertex 0.00000000 0.01302361 -0.04207462
      vertex 0.42000000 0.03000000 -0.03325538
      vertex 0.00000000 0.03750000 -0.04156922
    endloop
  endfacet
  facet normal -1.00000000 0.00000000 0.00000000
    outer loop
      vertex 0.00000000 0.00000000 0.00000000
      vertex 0.00000000 0.03750000 -0.04156922
      vertex 0.00000000 0.01302361 -0.04207462
    endloop
  endfacet
  facet normal 1.00000000 0.00000000 0.00000000
    outer loop
      vertex 0.42000000 0.00000000 0.00000000
      vertex 0.42000000 0.01041889 -0.03365970
      vertex 0.42000000 0.03000000 -0.03325538
    endloop
  endfacet
  facet normal -0.02383235 -0.26652176 0.96353421
    outer loop
      vertex 0.00000000 0.03750000 -0.04156922
      vertex 0.42000000 0.03000000 -0.03325538
      vertex 0.42000000 0.04596267 -0.02883997
    endloop
  endfacet
  facet normal -0.02383235 -0.26652176 0.96353421
    outer loop
      vertex 0.00000000 0.03750000 -0.04156922
      vertex 0.42000000 0.04596267 -0.02883997
      vertex 0.00000000 0.05745333 -0.03604996
    endloop
  endfacet
  facet normal -1.00000000 0.00000000 0.00000000
    outer loop
      vertex 0.00000000 0.00000000 0.00000000
      vertex 0.00000000 0.05745333 -0.03604996
      vertex 0.00000000 0.03750000 -0.04156922
    endloop
  endfacet
  facet normal 1.00000000 0.00000000 0.00000000
    outer loop
      vertex 0.42000000 0.00000000 0.00000000
      vertex 0.42000000 0.03000000 -0.03325538
      vertex 0.42000000 0.04596267 -0.02883997
    endloop
  endfacet
  facet normal -0.03179690 -0.74213924 0.66949108
    outer loop
      vertex 0.00000000 0.05745333 -0.03604996
      vertex 0.42000000 0.04596267 -0.02883997
      vertex 0.42000000 0.05638156 -0.01729050
    endloop
  endfacet
  facet normal -0.03179690 -0.74213924 0.66949108
    outer loop
      vertex 0.00000000 0.05745333 -0.03604996
      vertex 0.42000000 0.05638156 -0.01729050
      vertex 0.00000000 0.07047695 -0.02161312
    endloop
  endfacet
  facet normal -1.00000000 0.00000000 0.00000000
    outer loop
      vertex 0.00000000 0.00000000 0.00000000
      vertex 0.00000000 0.07047695 -0.02161312
      vertex 0.00000000 0.05745333 -0.03604996
    endloop
  endfacet
  facet normal 1.00000000 0.00000000 0.00000000
    outer loop
      vertex 0.42000000 0.00000000 0.00000000
      vertex 0.42000000 0.04596267 -0.02883997
      vertex 0.42000000 0.05638156 -0.01729050
    endloop
  endfacet
  facet normal -0.03493567 -0.97819879 0.20471110
    outer loop
      vertex 0.00000000 0.07047695 -0.02161312
      vertex 0.42000000 0.05638156 -0.01729050
      vertex 0.42000000 0.06000000 0.00000000
    endloop
  endfacet
  facet normal -0.03493567 -0.97819879 0.20471110
    outer loop
      vertex 0.00000000 0.07047695 -0.02161312
      vertex 0.42000000 0.06000000 0.00000000
      vertex 0.00000000 0.07500000 0.00000000
    endloop
  endfacet
  facet normal -1.00000000 0.00000000 0.00000000
    outer loop
      vertex 0.00000000 0.00000000 0.00000000
      vertex 0.00000000 0.07500000 0.00000000
      vertex 0.00000000 0.07047695 -0.02161312
    endloop
  endfacet
  facet normal 1.00000000 -0.00000000 0.00000000
    outer loop
      vertex 0.42000000 0.00000000 0.00000000
      vertex 0.42000000 0.05638156 -0.01729050
      vertex 0.42000000 0.06000000 0.00000000
    endloop
  endfacet
endsolid upper_arm_visual
