solid wrist_visual
  facet normal 0.00000000 -0.99518473 -0.09801714
    outer loop
      vertex -0.08000000 0.05000000 0.00000000
      vertex 0.08000000 0.05000000 0.00000000
      vertex 0.08000000 0.04903926 0.00975452
    endloop
  endfacet
  facet normal 0.00000000 -0.99518473 -0.09801714
    outer loop
      vertex -0.08000000 0.05000000 0.00000000
      vertex 0.08000000 0.04903926 0.00975452
      vertex -0.08000000 0.04903926 0.00975452
    endloop
  endfacet
  facet normal -1.00000000 0.00000000 0.00000000
    outer loop
      vertex -0.08000000 0.00000000 0.00000000
      vertex -0.08000000 0.04903926 0.00975452
      vertex -0.08000000 0.05000000 0.00000000
    endloop
  endfacet
  facet normal 1.00000000 0.00000000 0.00000000
    outer loop
      vertex 0.08000000 0.00000000 0.00000000
      vertex 0.08000000 0.05000000 0.00000000
      vertex 0.08000000 0.04903926 0.00975452
    endloop
  endfacet
  facet normal 0.00000000 -0.95694034 -0.29028468
    outer loop
      vertex -0.08000000 0.04903926 0.00975452
      vertex 0.08000000 0.04903926 0.00975452
      vertex 0.08000000 0.04619398 0.01913417
    endloop
  endfacet
  facet normal 0.00000000 -0.95694034 -0.29028468
    outer loop
      vertex -0.08000000 0.04903926 0.00975452
      vertex 0.08000000 0.04619398 0.01913417
      vertex -0.08000000 0.04619398 0.01913417
    endloop
  endfacet
  facet normal -1.00000000 0.00000000 0.00000000
    outer loop
      vertex -0.08000000 0.00000000 0.00000000
      vertex -0.08000000 0.04619398 0.01913417
      vertex -0.08000000 0.04903926 0.00975452
    endloop
  endfacet
  facet normal 1.00000000 0.00000000 0.00000000
    outer loop
      vertex 0.08000000 0.00000000 0.00000000
      vertex 0.08000000 0.04903926 0.00975452
      vertex 0.08000000 0.04619398 0.01913417
    endloop
  endfacet
  facet normal 0.00000000 -0.88192126 -0.47139674
    outer loop
      vertex -0.08000000 0.04619398 0.01913417
      vertex 0.08000000 0.04619398 0.01913417
      vertex 0.08000000 0.04157348 0.02777851
    endloop
  endfacet
  facet normal 0.00000000 -0.88192126 -0.47139674
    outer loop
      vertex -0.08000000 0.04619398 0.01913417
      vertex 0.08000000 0.04157348 0.02777851
      vertex -0.08000000 0.04157348 0.02777851
    endloop
  endfacet
  facet normal -1.00000000 0.00000000 0.00000000
    outer loop
      vertex -0.08000000 0.00000000 0.00000000
      vertex -0.08000000 0.04157348 0.02777851
      vertex -0.08000000 0.04619398 0.01913417
    endloop
  endfacet
  facet normal 1.00000000 0.00000000 0.00000000
    outer loop
      vertex 0.08000000 0.00000000 0.00000000
      vertex 0.08000000 0.04619398 0.01913417
      vertex 0.08000000 0.04157348 0.02777851
    endloop
  endfacet
  facet normal 0.00000000 -0.77301045 -0.63439328
    outer loop
      vertex -0.08000000 0.04157348 0.02777851
      vertex 0.08000000 0.04157348 0.02777851
      vertex 0.08000000 0.03535534 0.03535534
    endloop
  endfacet
  facet normal 0.00000000 -0.77301045 -0.63439328
    outer loop
      vertex -0.08000000 0.04157348 0.02777851
      vertex 0.08000000 0.03535534 0.03535534
      vertex -0.08000000 0.03535534 0.03535534
    endloop
  endfacet
  facet normal -1.00000000 0.00000000 0.00000000
    outer loop
      vertex -0.08000000 0.00000000 0.00000000
      vertex -0.08000000 0.03535534 0.03535534
      vertex -0.08000000 0.04157348 0.02777851
    endloop
  endfacet
  facet normal 1.00000000 0.00000000 0.00000000
    outer loop
      vertex 0.08000000 0.00000000 0.00000000
      vertex 0.08000000 0.04157348 0.02777851
      vertex 0.08000000 0.03535534 0.03535534
    endloop
  endfacet
  facet normal 0.00000000 -0.63439328 -0.77301045
    outer loop
      vertex -0.08000000 0.03535534 0.03535534
      vertex 0.08000000 0.03535534 0.03535534
      vertex 0.08000000 0.02777851 0.04157348
    endloop
  endfacet
  facet normal 0.00000000 -0.63439328 -0.77301045
    outer loop
      vertex -0.08000000 0.03535534 0.03535534
      vertex 0.08000000 0.02777851 0.04157348
      vertex -0.08000000 0.02777851 0.04157348
    endloop
  endfacet
  facet normal -1.00000000 0.00000000 0.00000000
    outer loop
      vertex -0.08000000 0.00000000 0.00000000
      vertex -0.08000000 0.02777851 0.04157348
      vertex -0.08000000 0.03535534 0.03535534
    endloop
  endfacet
  facet normal 1.00000000 0.00000000 0.00000000
    outer loop
      vertex 0.08000000 0.00000000 0.00000000
      vertex 0.08000000 0.03535534 0.03535534
      vertex 0.08000000 0.02777851 0.04157348
    endloop
  endfacet
  facet normal 0.00000000 -0.47139674 -0.88192126
    outer loop
      vertex -0.08000000 0.02777851 0.04157348
      vertex 0.08000000 0.02777851 0.04157348
      vertex 0.08000000 0.01913417 0.04619398
    endloop
  endfacet
  facet normal 0.00000000 -0.47139674 -0.88192126
    outer loop
      vertex -0.08000000 0.02777851 0.04157348
      vertex 0.08000000 0.01913417 0.04619398
      vertex -0.08000000 0.01913417 0.04619398
    endloop
  endfacet
  facet normal -1.00000000 0.00000000 0.00000000
    outer loop
      vertex -0.08000000 0.00000000 0.00000000
      vertex -0.08000000 0.01913417 0.04619398
      vertex -0.08000000 0.02777851 0.04157348
    endloop
  endfacet
  facet normal 1.00000000 0.00000000 0.00000000
    outer loop
      vertex 0.08000000 0.00000000 0.00000000
      vertex 0.08000000 0.02777851 0.04157348
      vertex 0.08000000 0.01913417 0.04619398
    endloop
  endfacet
  facet normal 0.00000000 -0.29028468 -0.95694034
    outer loop
      vertex -0.08000000 0.01913417 0.04619398
      vertex 0.08000000 0.01913417 0.04619398
      vertex 0.08000000 0.00975452 0.04903926
    endloop
  endfacet
  facet normal 0.00000000 -0.29028468 -0.95694034
    outer loop
      vertex -0.08000000 0.01913417 0.04619398
      vertex 0.08000000 0.00975452 0.04903926
      vertex -0.08000000 0.00975452 0.04903926
    endloop
  endfacet
  facet normal -1.00000000 0.00000000 0.00000000
    outer loop
      vertex -0.08000000 0.00000000 0.00000000
      vertex -0.08000000 0.00975452 0.04903926
      vertex -0.08000000 0.01913417 0.04619398
    endloop
  endfacet
  facet normal 1.00000000 0.00000000 0.00000000
    outer loop
      vertex 0.08000000 0.00000000 0.00000000
      vertex 0.08000000 0.01913417 0.04619398
      vertex 0.08000000 0.00975452 0.04903926
    endloop
  endfacet
  facet normal 0.00000000 -0.09801714 -0.99518473
    outer loop
      vertex -0.08000000 0.00975452 0.04903926
      vertex 0.08000000 0.00975452 0.04903926
      vertex 0.08000000 0.00000000 0.05000000
    endloop
  endfacet
  facet normal 0.00000000 -0.09801714 -0.99518473
    outer loop
      vertex -0.08000000 0.00975452 0.04903926
      vertex 0.08000000 0.00000000 0.05000000
      vertex -0.08000000 0.00000000 0.05000000
    endloop
  endfacet
  facet normal -1.00000000 0.00000000 0.00000000
    outer loop
      vertex -0.08000000 0.00000000 0.00000000
      vertex -0.08000000 0.00000000 0.05000000
      vertex -0.08000000 0.00975452 0.04903926
    endloop
  endfacet
  facet normal 1.00000000 0.00000000 0.00000000
    outer loop
      vertex 0.08000000 0.00000000 0.00000000
      vertex 0.08000000 0.00975452 0.04903926
      vertex 0.08000000 0.00000000 0.05000000
    endloop
  endfacet
  facet normal 0.00000000 0.09801714 -0.99518473
    outer loop
      vertex -0.08000000 0.00000000 0.05000000
      vertex 0.08000000 0.00000000 0.05000000
      vertex 0.08000000 -0.00975452 0.04903926
    endloop
  endfacet
  facet normal 0.00000000 0.09801714 -0.99518473
    outer loop
      vertex -0.08000000 0.00000000 0.05000000
      vertex 0.08000000 -0.00975452 0.04903926
      vertex -0.08000000 -0.00975452 0.04903926
    endloop
  endfacet
  facet normal -1.00000000 0.00000000 0.00000000
    outer loop
      vertex -0.08000000 0.00000000 0.00000000
      vertex -0.08000000 -0.00975452 0.04903926
      vertex -0.08000000 0.00000000 0.05000000
    endloop
  endfacet
  facet normal 1.00000000 0.00000000 -0.00000000
    outer loop
      vertex 0.08000000 0.00000000 0.00000000
      vertex 0.08000000 0.00000000 0.05000000
      vertex 0.08000000 -0.00975452 0.04903926
    endloop
  endfacet
  facet normal 0.00000000 0.29028468 -0.95694034
    outer loop
      vertex -0.08000000 -0.00975452 0.04903926
      vertex 0.08000000 -0.00975452 0.04903926
      vertex 0.08000000 -0.01913417 0.04619398
    endloop
  endfacet
  facet normal 0.00000000 0.29028468 -0.95694034
    outer loop
      vertex -0.08000000 -0.00975452 0.04903926
      vertex 0.08000000 -0.01913417 0.04619398
      vertex -0.08000000 -0.01913417 0.04619398
    endloop
  endfacet
  facet normal -1.00000000 0.00000000 0.00000000
    outer loop
      vertex -0.08000000 0.00000000 0.00000000
      vertex -0.08000000 -0.01913417 0.04619398
      vertex -0.08000000 -0.00975452 0.04903926
    endloop
  endfacet
  facet normal 1.00000000 0.00000000 0.00000000
    outer loop
      vertex 0.08000000 0.00000000 0.00000000
      vertex 0.08000000 -0.00975452 0.04903926
      vertex 0.08000000 -0.01913417 0.04619398
    endloop
  endfacet
  facet normal 0.00000000 0.47139674 -0.88192126
    outer loop
      vertex -0.08000000 -0.01913417 0.04619398
      vertex 0.08000000 -0.01913417 0.04619398
      vertex 0.08000000 -0.02777851 0.04157348
    endloop
  endfacet
  facet normal 0.00000000 0.47139674 -0.88192126
    outer loop
      vertex -0.08000000 -0.01913417 0.04619398
      vertex 0.08000000 -0.02777851 0.04157348
      vertex -0.08000000 -0.02777851 0.04157348
    endloop
  endfacet
  facet normal -1.00000000 0.00000000 0.00000000
    outer loop
      vertex -0.08000000 0.00000000 0.00000000
      vertex -0.08000000 -0.02777851 0.04157348
      vertex -0.08000000 -0.01913417 0.04619398
    endloop
  endfacet
  facet normal 1.00000000 0.00000000 0.00000000
    outer loop
      vertex 0.08000000 0.00000000 0.00000000
      vertex 0.08000000 -0.01913417 0.04619398
      vertex 0.08000000 -0.02777851 0.04157348
    endloop
  endfacet
  facet normal 0.00000000 0.63439328 -0.77301045
    outer loop
      vertex -0.08000000 -0.02777851 0.04157348
      vertex 0.08000000 -0.02777851 0.04157348
      vertex 0.08000000 -0.03535534 0.03535534
    endloop
  endfacet
  facet normal 0.00000000 0.63439328 -0.77301045
    outer loop
      vertex -0.08000000 -0.02777851 0.04157348
      vertex 0.08000000 -0.03535534 0.03535534
      vertex -0.08000000 -0.03535534 0.03535534
    endloop
  endfacet
  facet normal -1.00000000 0.00000000 0.00000000
    outer loop
      vertex -0.08000000 0.00000000 0.00000000
      vertex -0.08000000 -0.03535534 0.03535534
      vertex -0.08000000 -0.02777851 0.04157348
    endloop
  endfacet
  facet normal 1.00000000 0.00000000 0.00000000
    outer loop
      vertex 0.08000000 0.00000000 0.00000000
      vertex 0.08000000 -0.02777851 0.04157348
      vertex 0.08000000 -0.03535534 0.03535534
    endloop
  endfacet
  facet normal 0.00000000 0.77301045 -0.63439328
    outer loop
      vertex -0.08000000 -0.03535534 0.03535534
      vertex 0.08000000 -0.03535534 0.03535534
      vertex 0.08000000 -0.04157348 0.02777851
    endloop
  endfacet
  facet normal 0.00000000 0.77301045 -0.63439328
    outer loop
      vertex -0.08000000 -0.03535534 0.03535534
      vertex 0.08000000 -0.04157348 0.02777851
      vertex -0.08000000 -0.04157348 0.02777851
    endloop
  endfacet
  facet normal -1.00000000 0.00000000 0.00000000
    outer loop
      vertex -0.08000000 0.00000000 0.00000000
      vertex -0.08000000 -0.04157348 0.02777851
      vertex -0.08000000 -0.03535534 0.03535534
    endloop
  endfacet
  facet normal 1.00000000 0.00000000 0.00000000
    outer loop
      vertex 0.08000000 0.00000000 0.00000000
      vertex 0.08000000 -0.03535534 0.03535534
      vertex 0.08000000 -0.04157348 0.02777851
    endloop
  endfacet
  facet normal 0.00000000 0.88192126 -0.47139674
    outer loop
      vertex -0.08000000 -0.04157348 0.02777851
      vertex 0.08000000 -0.04157348 0.02777851
      vertex 0.08000000 -0.04619398 0.01913417
    endloop
  endfacet
  facet normal 0.00000000 0.88192126 -0.47139674
    outer loop
      vertex -0.08000000 -0.04157348 0.02777851
      vertex 0.08000000 -0.04619398 0.01913417
      vertex -0.08000000 -0.04619398 0.01913417
    endloop
  endfacet
  facet normal -1.00000000 0.00000000 0.00000000
    outer loop
      vertex -0.08000000 0.00000000 0.00000000
      vertex -0.08000000 -0.04619398 0.01913417
      vertex -0.08000000 -0.04157348 0.02777851
    endloop
  endfacet
  facet normal 1.00000000 0.00000000 0.00000000
    outer loop
      vertex 0.08000000 0.00000000 0.00000000
      vertex 0.08000000 -0.04157348 0.02777851
      vertex 0.08000000 -0.04619398 0.01913417
    endloop
  endfacet
  facet normal 0.00000000 0.95694034 -0.29028468
    outer loop
      vertex -0.08000000 -0.04619398 0.01913417
      vertex 0.08000000 -0.04619398 0.01913417
      vertex 0.08000000 -0.04903926 0.00975452
    endloop
  endfacet
  facet normal 0.00000000 0.95694034 -0.29028468
    outer loop
      vertex -0.08000000 -0.04619398 0.01913417
      vertex 0.08000000 -0.04903926 0.00975452
      vertex -0.08000000 -0.04903926 0.00975452
    endloop
  endfacet
  facet normal -1.00000000 0.00000000 0.00000000
    outer loop
      vertex -0.08000000 0.00000000 0.00000000
      vertex -0.08000000 -0.04903926 0.00975452
      vertex -0.08000000 -0.04619398 0.01913417
    endloop
  endfacet
  facet normal 1.00000000 0.00000000 0.00000000
    outer loop
      vertex 0.08000000 0.00000000 0.00000000
      vertex 0.08000000 -0.04619398 0.01913417
      vertex 0.08000000 -0.04903926 0.00975452
    endloop
  endfacet
  facet normal 0.00000000 0.99518473 -0.09801714
    outer loop
      vertex -0.08000000 -0.04903926 0.00975452
      vertex 0.08000000 -0.04903926 0.00975452
      vertex 0.08000000 -0.05000000 0.00000000
    endloop
  endfacet
  facet normal 0.00000000 0.99518473 -0.09801714
    outer loop
      vertex -0.08000000 -0.04903926 0.00975452
      vertex 0.08000000 -0.05000000 0.00000000
      vertex -0.08000000 -0.05000000 0.00000000
    endloop
  endfacet
  facet normal -1.00000000 0.00000000 0.00000000
    outer loop
      vertex -0.08000000 0.00000000 0.00000000
      vertex -0.08000000 -0.05000000 0.00000000
      vertex -0.08000000 -0.04903926 0.00975452
    endloop
  endfacet
  facet normal 1.00000000 0.00000000 0.00000000
    outer loop
      vertex 0.08000000 0.00000000 0.00000000
      vertex 0.08000000 -0.04903926 0.00975452
      vertex 0.08000000 -0.05000000 0.00000000
    endloop
  endfacet
  facet normal -0.00000000 0.99518473 0.09801714
    outer loop
      vertex -0.08000000 -0.05000000 0.00000000
      vertex 0.08000000 -0.05000000 0.00000000
      vertex 0.08000000 -0.04903926 -0.00975452
    endloop
  endfacet
  facet normal 0.00000000 0.99518473 0.09801714
    outer loop
      vertex -0.08000000 -0.05000000 0.00000000
      vertex 0.08000000 -0.04903926 -0.00975452
      vertex -0.08000000 -0.04903926 -0.00975452
    endloop
  endfacet
  facet normal -1.00000000 -0.00000000 0.00000000
    outer loop
      vertex -0.08000000 0.00000000 0.00000000
      vertex -0.08000000 -0.04903926 -0.00975452
      vertex -0.08000000 -0.05000000 0.00000000
    endloop
  endfacet
  facet normal 1.00000000 0.00000000 0.00000000
    outer loop
      vertex 0.08000000 0.00000000 0.00000000
      vertex 0.08000000 -0.05000000 0.00000000
      vertex 0.08000000 -0.04903926 -0.00975452
    endloop
  endfacet
  facet normal -0.00000000 0.95694034 0.29028468
    outer loop
      vertex -0.08000000 -0.04903926 -0.00975452
      vertex 0.08000000 -0.04903926 -0.00975452
      vertex 0.08000000 -0.04619398 -0.01913417
    endloop
  endfacet
  facet normal 0.00000000 0.95694034 0.29028468
    outer loop
      vertex -0.08000000 -0.04903926 -0.00975452
      vertex 0.08000000 -0.04619398 -0.01913417
      vertex -0.08000000 -0.04619398 -0.01913417
    endloop
  endfacet
  facet normal -1.00000000 0.00000000 0.00000000
    outer loop
      vertex -0.08000000 0.00000000 0.00000000
      vertex -0.08000000 -0.04619398 -0.01913417
      vertex -0.08000000 -0.04903926 -0.00975452
    endloop
  endfacet
  facet normal 1.00000000 0.00000000 0.00000000
    outer loop
      vertex 0.08000000 0.00000000 0.00000000
      vertex 0.08000000 -0.04903926 -0.00975452
      vertex 0.08000000 -0.04619398 -0.01913417
    endloop
  endfacet
  facet normal -0.00000000 0.88192126 0.47139674
    outer loop
      vertex -0.08000000 -0.04619398 -0.01913417
      vertex 0.08000000 -0.04619398 -0.01913417
      vertex 0.08000000 -0.04157348 -0.02777851
    endloop
  endfacet
  facet normal 0.00000000 0.88192126 0.47139674
    outer loop
      vertex -0.08000000 -0.04619398 -0.01913417
      vertex 0.08000000 -0.04157348 -0.02777851
      vertex -0.08000000 -0.04157348 -0.02777851
    endloop
  endfacet
  facet normal -1.00000000 0.00000000 0.00000000
    outer loop
      vertex -0.08000000 0.00000000 0.00000000
      vertex -0.08000000 -0.04157348 -0.02777851
      vertex -0.08000000 -0.04619398 -0.01913417
    endloop
  endfacet
  facet normal 1.00000000 0.00000000 0.00000000
    outer loop
      vertex 0.08000000 0.00000000 0.00000000
      vertex 0.08000000 -0.04619398 -0.01913417
      vertex 0.08000000 -0.04157348 -0.02777851
    endloop
  endfacet
  facet normal -0.00000000 0.77301045 0.63439328
    outer loop
      vertex -0.08000000 -0.04157348 -0.02777851
      vertex 0.08000000 -0.04157348 -0.02777851
      vertex 0.08000000 -0.03535534 -0.03535534
    endloop
  endfacet
  facet normal 0.00000000 0.77301045 0.63439328
    outer loop
      vertex -0.08000000 -0.04157348 -0.02777851
      vertex 0.08000000 -0.03535534 -0.03535534
      vertex -0.08000000 -0.03535534 -0.03535534
    endloop
  endfacet
  facet normal -1.00000000 0.00000000 0.00000000
    outer loop
      vertex -0.08000000 0.00000000 0.00000000
      vertex -0.08000000 -0.03535534 -0.03535534
      vertex -0.08000000 -0.04157348 -0.02777851
    endloop
  endfacet
  facet normal 1.00000000 0.00000000 0.00000000
    outer loop
      vertex 0.08000000 0.00000000 0.00000000
      vertex 0.08000000 -0.04157348 -0.02777851
      vertex 0.08000000 -0.03535534 -0.03535534
    endloop
  endfacet
  facet normal -0.00000000 0.63439328 0.77301045
    outer loop
      vertex -0.08000000 -0.03535534 -0.03535534
      vertex 0.08000000 -0.03535534 -0.03535534
      vertex 0.08000000 -0.02777851 -0.04157348
    endloop
  endfacet
  facet normal 0.00000000 0.63439328 0.77301045
    outer loop
      vertex -0.08000000 -0.03535534 -0.03535534
      vertex 0.08000000 -0.02777851 -0.04157348
      vertex -0.08000000 -0.02777851 -0.04157348
    endloop
  endfacet
  facet normal -1.00000000 0.00000000 0.00000000
    outer loop
      vertex -0.08000000 0.00000000 0.00000000
      vertex -0.08000000 -0.02777851 -0.04157348
      vertex -0.08000000 -0.03535534 -0.03535534
    endloop
  endfacet
  facet normal 1.00000000 0.00000000 0.00000000
    outer loop
      vertex 0.08000000 0.00000000 0.00000000
      vertex 0.08000000 -0.03535534 -0.03535534
      vertex 0.08000000 -0.02777851 -0.04157348
    endloop
  endfacet
  facet normal -0.00000000 0.47139674 0.88192126
    outer loop
      vertex -0.08000000 -0.02777851 -0.04157348
      vertex 0.08000000 -0.02777851 -0.04157348
      vertex 0.08000000 -0.01913417 -0.04619398
    endloop
  endfacet
  facet normal 0.00000000 0.47139674 0.88192126
    outer loop
      vertex -0.08000000 -0.02777851 -0.04157348
      vertex 0.08000000 -0.01913417 -0.04619398
      vertex -0.08000000 -0.01913417 -0.04619398
    endloop
  endfacet
  facet normal -1.00000000 0.00000000 0.00000000
    outer loop
      vertex -0.08000000 0.00000000 0.00000000
      vertex -0.08000000 -0.01913417 -0.04619398
      vertex -0.08000000 -0.02777851 -0.04157348
    endloop
  endfacet
  facet normal 1.00000000 0.00000000 0.00000000
    outer loop
      vertex 0.08000000 0.00000000 0.00000000
      vertex 0.08000000 -0.02777851 -0.04157348
      vertex 0.08000000 -0.01913417 -0.04619398
    endloop
  endfacet
  facet normal -0.00000000 0.29028468 0.95694034
    outer loop
      vertex -0.08000000 -0.01913417 -0.04619398
      vertex 0.08000000 -0.01913417 -0.04619398
      vertex 0.08000000 -0.00975452 -0.04903926
    endloop
  endfacet
  facet normal 0.00000000 0.29028468 0.95694034
    outer loop
      vertex -0.08000000 -0.01913417 -0.04619398
      vertex 0.08000000 -0.00975452 -0.04903926
      vertex -0.08000000 -0.00975452 -0.04903926
    endloop
  endfacet
  facet normal -1.00000000 0.00000000 0.00000000
    outer loop
      vertex -0.08000000 0.00000000 0.00000000
      vertex -0.08000000 -0.00975452 -0.04903926
      vertex -0.08000000 -0.01913417 -0.04619398
    endloop
  endfacet
  facet normal 1.00000000 0.00000000 0.00000000
    outer loop
      vertex 0.08000000 0.00000000 0.00000000
      vertex 0.08000000 -0.01913417 -0.04619398
      vertex 0.08000000 -0.00975452 -0.04903926
    endloop
  endfacet
  facet normal -0.00000000 0.09801714 0.99518473
    outer loop
      vertex -0.08000000 -0.00975452 -0.04903926
      vertex 0.08000000 -0.00975452 -0.04903926
      vertex 0.08000000 -0.00000000 -0.05000000
    endloop
  endfacet
  facet normal 0.00000000 0.09801714 0.99518473
    outer loop
      vertex -0.08000000 -0.00975452 -0.04903926
      vertex 0.08000000 -0.00000000 -0.05000000
      vertex -0.08000000 -0.00000000 -0.05000000
    endloop
  endfacet
  facet normal -1.00000000 0.00000000 0.00000000
    outer loop
      vertex -0.08000000 0.00000000 0.00000000
      vertex -0.08000000 -0.00000000 -0.05000000
      vertex -0.08000000 -0.00975452 -0.04903926
    endloop
  endfacet
  facet normal 1.00000000 0.00000000 0.00000000
    outer loop
      vertex 0.08000000 0.00000000 0.00000000
      vertex 0.08000000 -0.00975452 -0.04903926
      vertex 0.08000000 -0.00000000 -0.05000000
    endloop
  endfacet
  facet normal 0.00000000 -0.09801714 0.99518473
    outer loop
      vertex -0.08000000 -0.00000000 -0.05000000
      vertex 0.08000000 -0.00000000 -0.05000000
      vertex 0.08000000 0.00975452 -0.04903926
    endloop
  endfacet
  facet normal 0.00000000 -0.09801714 0.99518473
    outer loop
      vertex -0.08000000 -0.00000000 -0.05000000
      vertex 0.08000000 0.00975452 -0.04903926
      vertex -0.08000000 0.00975452 -0.04903926
    endloop
  endfacet
  facet normal -1.00000000 0.00000000 -0.00000000
    outer loop
      vertex -0.08000000 0.00000000 0.00000000
      vertex -0.08000000 0.00975452 -0.04903926
      vertex -0.08000000 -0.00000000 -0.05000000
    endloop
  endfacet
  facet normal 1.00000000 0.00000000 0.00000000
    outer loop
      vertex 0.08000000 0.00000000 0.00000000
      vertex 0.08000000 -0.00000000 -0.05000000
      vertex 0.08000000 0.00975452 -0.04903926
    endloop
  endfacet
  facet normal 0.00000000 -0.29028468 0.95694034
    outer loop
      vertex -0.08000000 0.00975452 -0.04903926
      vertex 0.08000000 0.00975452 -0.04903926
      vertex 0.08000000 0.01913417 -0.04619398
    endloop
  endfacet
  facet normal 0.00000000 -0.29028468 0.95694034
    outer loop
      vertex -0.08000000 0.00975452 -0.04903926
      vertex 0.08000000 0.01913417 -0.04619398
      vertex -0.08000000 0.01913417 -0.04619398
    endloop
  endfacet
  facet normal -1.00000000 0.00000000 0.00000000
    outer loop
      vertex -0.08000000 0.00000000 0.00000000
      vertex -0.08000000 0.01913417 -0.04619398
      vertex -0.08000000 0.00975452 -0.04903926
    endloop
  endfacet
  facet normal 1.00000000 0.00000000 0.00000000
    outer loop
      vertex 0.08000000 0.00000000 0.00000000
      vertex 0.08000000 0.00975452 -0.04903926
      vertex 0.08000000 0.01913417 -0.04619398
    endloop
  endfacet
  facet normal 0.00000000 -0.47139674 0.88192126
    outer loop
      vertex -0.08000000 0.01913417 -0.04619398
      vertex 0.08000000 0.01913417 -0.04619398
      vertex 0.08000000 0.02777851 -0.04157348
    endloop
  endfacet
  facet normal 0.00000000 -0.47139674 0.88192126
    outer loop
      vertex -0.08000000 0.01913417 -0.04619398
      vertex 0.08000000 0.02777851 -0.04157348
      vertex -0.08000000 0.02777851 -0.04157348
    endloop
  endfacet
  facet normal -1.00000000 0.00000000 0.00000000
    outer loop
      vertex -0.08000000 0.00000000 0.00000000
      vertex -0.08000000 0.02777851 -0.04157348
      vertex -0.08000000 0.01913417 -0.04619398
    endloop
  endfacet
  facet normal 1.00000000 0.00000000 0.00000000
    outer loop
      vertex 0.08000000 0.00000000 0.00000000
      vertex 0.08000000 0.01913417 -0.04619398
      vertex 0.08000000 0.02777851 -0.04157348
    endloop
  endfacet
  facet normal 0.00000000 -0.63439328 0.77301045
    outer loop
      vertex -0.08000000 0.02777851 -0.04157348
      vertex 0.08000000 0.02777851 -0.04157348
      vertex 0.08000000 0.03535534 -0.03535534
    endloop
  endfacet
  facet normal 0.00000000 -0.63439328 0.77301045
    outer loop
      vertex -0.08000000 0.02777851 -0.04157348
      vertex 0.08000000 0.03535534 -0.03535534
      vertex -0.08000000 0.03535534 -0.03535534
    endloop
  endfacet
  facet normal -1.00000000 0.00000000 0.00000000
    outer loop
      vertex -0.08000000 0.00000000 0.00000000
      vertex -0.08000000 0.03535534 -0.03535534
      vertex -0.08000000 0.02777851 -0.04157348
    endloop
  endfacet
  facet normal 1.00000000 0.00000000 0.00000000
    outer loop
      vertex 0.08000000 0.00000000 0.00000000
      vertex 0.08000000 0.02777851 -0.04157348
      vertex 0.08000000 0.03535534 -0.03535534
    endloop
  endfacet
  facet normal 0.00000000 -0.77301045 0.63439328
    outer loop
      vertex -0.08000000 0.03535534 -0.03535534
      vertex 0.08000000 0.03535534 -0.03535534
      vertex 0.08000000 0.04157348 -0.02777851
    endloop
  endfacet
  facet normal 0.00000000 -0.77301045 0.63439328
    outer loop
      vertex -0.08000000 0.03535534 -0.03535534
      vertex 0.08000000 0.04157348 -0.02777851
      vertex -0.08000000 0.04157348 -0.02777851
    endloop
  endfacet
  facet normal -1.00000000 0.00000000 0.00000000
    outer loop
      vertex -0.08000000 0.00000000 0.00000000
      vertex -0.08000000 0.04157348 -0.02777851
      vertex -0.08000000 0.03535534 -0.03535534
    endloop
  endfacet
  facet normal 1.00000000 0.00000000 0.00000000
    outer loop
      vertex 0.08000000 0.00000000 0.00000000
      vertex 0.08000000 0.03535534 -0.03535534
      vertex 0.08000000 0.04157348 -0.02777851
    endloop
  endfacet
  facet normal 0.00000000 -0.88192126 0.47139674
    outer loop
      vertex -0.08000000 0.04157348 -0.02777851
      vertex 0.08000000 0.04157348 -0.02777851
      vertex 0.08000000 0.04619398 -0.01913417
    endloop
  endfacet
  facet normal 0.00000000 -0.88192126 0.47139674
    outer loop
      vertex -0.08000000 0.04157348 -0.02777851
      vertex 0.08000000 0.04619398 -0.01913417
      vertex -0.08000000 0.04619398 -0.01913417
    endloop
  endfacet
  facet normal -1.00000000 0.00000000 0.00000000
    outer loop
      vertex -0.08000000 0.00000000 0.00000000
      vertex -0.08000000 0.04619398 -0.01913417
      vertex -0.08000000 0.04157348 -0.02777851
    endloop
  endfacet
  facet normal 1.00000000 0.00000000 0.00000000
    outer loop
      vertex 0.08000000 0.00000000 0.00000000
      vertex 0.08000000 0.04157348 -0.02777851
      vertex 0.08000000 0.04619398 -0.01913417
    endloop
  endfacet
  facet normal 0.00000000 -0.95694034 0.29028468
    outer loop
      vertex -0.08000000 0.04619398 -0.01913417
      vertex 0.08000000 0.04619398 -0.01913417
      vertex 0.08000000 0.04903926 -0.00975452
    endloop
  endfacet
  facet normal 0.00000000 -0.95694034 0.29028468
    outer loop
      vertex -0.08000000 0.04619398 -0.01913417
      vertex 0.08000000 0.04903926 -0.00975452
      vertex -0.08000000 0.04903926 -0.00975452
    endloop
  endfacet
  facet normal -1.00000000 0.00000000 0.00000000
    outer loop
      vertex -0.08000000 0.00000000 0.00000000
      vertex -0.08000000 0.04903926 -0.00975452
      vertex -0.08000000 0.04619398 -0.01913417
    endloop
  endfacet
  facet normal 1.00000000 0.00000000 0.00000000
    outer loop
      vertex 0.08000000 0.00000000 0.00000000
      vertex 0.08000000 0.04619398 -0.01913417
      vertex 0.08000000 0.04903926 -0.00975452
    endloop
  endfacet
  facet normal 0.00000000 -0.99518473 0.09801714
    outer loop
      vertex -0.08000000 0.04903926 -0.00975452
      vertex 0.08000000 0.04903926 -0.00975452
      vertex 0.08000000 0.05000000 0.00000000
    endloop
  endfacet
  facet normal 0.00000000 -0.99518473 0.09801714
    outer loop
      vertex -0.08000000 0.04903926 -0.00975452
      vertex 0.08000000 0.05000000 0.00000000
      vertex -0.08000000 0.05000000 0.00000000
    endloop
  endfacet
  facet normal -1.00000000 0.00000000 0.00000000
    outer loop
      vertex -0.08000000 0.00000000 0.00000000
      vertex -0.08000000 0.05000000 0.00000000
      vertex -0.08000000 0.04903926 -0.00975452
    endloop
  endfacet
  facet normal 1.00000000 -0.00000000 0.00000000
    outer loop
      vertex 0.08000000 0.00000000 0.00000000
      vertex 0.08000000 0.04903926 -0.00975452
      vertex 0.08000000 0.05000000 0.00000000
    endloop
  endfacet
endsolid wrist_visual
